<?xml version="1.0" encoding="utf-8"?>
<!-- Generator: Adobe Illustrator 23.1.0, SVG Export Plug-In . SVG Version: 6.00 Build 0)  -->
<svg version="1.1" xmlns="http://www.w3.org/2000/svg" xmlns:xlink="http://www.w3.org/1999/xlink" x="0px" y="0px"
	 viewBox="0 0 1366 430" style="enable-background:new 0 0 1366 430;" xml:space="preserve">
<style type="text/css">
	.st0{fill:#CEAD24;stroke:#CEAD24;stroke-miterlimit:10;}
	.st1{fill:#E2CA64;stroke:#E2CA64;stroke-miterlimit:10;}
	.st2{fill:#EDD545;stroke:#C9AD24;stroke-width:0.75;stroke-miterlimit:10;}
	.st3{fill:#C17542;}
	.st4{fill:#A05624;}
	.st5{fill:#B7A99F;}
	.st6{fill:#994004;}
	.st7{fill:#72370C;}
	.st8{fill:none;}
	.st9{fill:#F7FFAF;}
	.st10{fill:#B19240;}
	.st11{fill:#6D4300;}
</style>
<g id="圖層_2">
</g>
<g id="圖層_1">
	<g>
		<circle class="st0" cx="215.2" cy="214.7" r="212.8"/>
		<circle class="st1" cx="212.9" cy="214.2" r="203.8"/>
		<circle class="st0" cx="214.3" cy="211.9" r="194"/>
		<circle class="st1" cx="211.9" cy="208.6" r="140"/>
		<g>
			<g id="圖片_1_">
			</g>
			<g id="圓_1_">
			</g>
			<g id="logo_1_">
			</g>
			<g id="底圖_1_">
				<g>
					<circle class="st2" cx="212" cy="208.6" r="127.3"/>
					<g>
						<g>
							<path class="st3" d="M196.8,172.1c-4.6-3-10.3-3.1-15.6-2.8c-5.3,0.4-10.7,1.4-15.4,4.2c-8.6,5.2-11,14.8-16.8,22.2
								c-1.4,1.7-1.7,4.1,0,5.8c1.4,1.4,4.4,1.7,5.8,0c2.6-3.4,4.7-7,6.7-10.6c1.9-3.4,3.9-6.9,6.9-9.3c3.3-2.6,7.6-3.6,11.7-4
								c4.2-0.4,8.9-0.9,12.6,1.6C197,182.1,201.1,175,196.8,172.1L196.8,172.1z"/>
						</g>
					</g>
					<g>
						<g>
							<path class="st3" d="M162.2,180.9c-15.1,11.7-28.9,24.9-41,39.7c-1.4,1.7-1.6,4.1,0,5.8c1.5,1.5,4.4,1.7,5.8,0
								c11.6-14.2,24.8-27.2,39.3-38.4c1.7-1.3,2.7-3.5,1.5-5.6C166.8,180.7,163.9,179.6,162.2,180.9L162.2,180.9z"/>
						</g>
					</g>
					<g>
						<g>
							<path class="st3" d="M159.4,188.3c-7.8,11.9-18.9,21.4-31.8,27.6c-2,1-2.5,3.8-1.5,5.6c1.2,2.1,3.6,2.5,5.6,1.5
								c14.1-6.7,26.1-17.5,34.7-30.5c1.2-1.9,0.4-4.5-1.5-5.6C163,185.7,160.7,186.5,159.4,188.3L159.4,188.3z"/>
						</g>
					</g>
					<g>
						<g>
							<path class="st3" d="M155.7,202.2c-7.9,5.3-15.9,10.7-23.8,16c-6,4.1-13.7,7.8-17.2,14.7c-1.5,3,0.5,5.9,3.4,6.2
								c12,1.5,24-1,36.1-1.9c0.4,0,0.9-0.1,1.3-0.1c20.9-3.3,41.7-3.7,59.6-15.5c27.1-17.8,40-49.9,54.5-78.3
								c4-7.7-18.8-17.8-2.6,33.1c-0.3,0.3-0.3,0.3-0.6,0.6c-50-14.3-36.4,12-30,4.8c10.3-11.6,20.5-23.1,30.8-34.7
								c1.8-2.1,1.3-6.4-1.7-7c-2.7-0.3-5.4-0.8-8.1-1.3c0.8,2,1.6,4.1,2.4,6.1c2.1-3.3,4.7-5.1,8.5-6c5-1.1,2.8-9-2.1-8
								c-2.5,0.6-5.1,1.1-7.7,1.7c-4.6,1-3.2,7.8,1,8.1c3.8,0.2,7.4,0.8,11.1,1.7c0-2.7,0-5.3,0-8c-2.5,0.5-5.1,0.9-7.6,1.4
								c-4.4,0.8-3.3,8.2,1,8.1c1.7,0,2.6,0-1.6,0v-5c-5.3,0.2-24.6-0.5-24.6-0.5s0,5.6,0,8.1c5.4-0.5,11-0.7,16.4-0.4
								c0-2.5,0-5.4,0-8.1c-11-0.1-21.9-0.1-32.8,0.2c0,2.7,0,8.2,0,8.2s18.5-0.4,27.2-0.6c-0.3-2.7-0.7-5.3-1.1-8
								c-1.4,0.5-2.9,0.7-4.3,0.5c0.3,2.7,0.7,5.3,1.1,8c4.8-0.7,9.4-1.6,13.9-2.9c4.5-1.2,3.5-8-1.1-8c-9.4-0.1-27.5-0.2-27.5-0.2
								v8.2l8.2,0.2v-8.2c0,0-4.9,1.6-12.3,2.5c-5.2,0.6-5.4,8.1,0,8.2c5.9,0.1,20.6,0.3,20.6,0.3V138c0,0-20.4,1.5-29.2,2.3
								c-7.5,0.7-13.8,2.2-19.9,6.8c-6.4,4.8-12.4,10.3-18.5,15.3c-5.8,4.8-11.8,9.4-16.1,15.8c-2.4,3.5,2.2,7.5,5.6,5.6
								c11.5-6.5,22.6-13.5,33.5-21.1c10-7.1,19.7-16.5,31.8-19.9c3.8-1.1,4.1-7.1,0-7.9c-16.6-3.6-26.8,10.8-37.7,20.6
								c-10.9,9.8-22.5,18.6-28.3,32.5c-1.8,4.3,4.1,6.2,6.9,4c22.2-17.5,45.7-33.3,70.1-47.5c-1.4-2.4-2.8-4.8-4.1-7.1
								c-13.5,10.2-29.5,16.7-44.1,25.3c-15.2,8.9-29.7,19-44.2,29c-4.3,3-0.3,10,4.1,7.1c8.8-5.7,16.9-12.5,24.2-20
								c3.4-3.5-0.9-8.3-5-6.5c-14.2,6.5-26,16.5-35.1,29.1c-3,4.1,3.1,7.6,6.5,5c5.2-4.1,10.3-8.3,15.4-12.4c3.6-2.9-1.2-9.3-5-6.5
								c-9.9,7.5-19.9,15.2-29.8,22.7c-4.1,3.1-0.3,10.1,4.1,7.1c11.3-7.6,22.5-16.1,29.9-27.8c4-6.3,7.3-11.1,13.7-15.3
								c6.6-4.4,13.8-8.1,21.3-11.1c4.8-1.9,2.7-9.8-2.2-7.9c-12.6,4.9-27.7,11.7-35.6,23.2c-4.3,6.2-7.8,12.5-13.4,17.8
								c-5.5,5.3-11.7,9.8-18,14c1.4,2.4,2.8,4.8,4.1,7.1c9.9-7.5,19.9-15.2,29.8-22.7c-1.6-2.1-3.3-4.3-5-6.5
								c-5.2,4.1-10.3,8.3-15.4,12.4c2.1,1.6,4.3,3.3,6.5,5c8.3-11.5,19.4-20.3,32.2-26.2c-1.6-2.1-3.3-4.3-5-6.5
								c-6.8,7.1-14.4,13.3-22.6,18.7c1.4,2.4,2.8,4.8,4.1,7.1c14.5-10.1,29-20.1,44.2-29c14.6-8.5,30.4-15,44.1-25.3
								c4.1-3.1,0.6-9.8-4.1-7.1c-25,14.6-49,30.9-71.7,48.8c2.3,1.3,4.6,2.6,6.9,4c4.8-11.2,14.9-19,23.8-26.7
								c8.9-7.4,22.6-20.5,22.6-20.5v-7.9c0,0-12,12.4-22.2,19.6c-11.3,8-23,15.3-35,22.2c1.9,1.9,3.8,3.8,5.6,5.6
								c3.7-5.4,9.1-9.4,14.1-13.5c5.6-4.7,11.2-9.5,16.8-14.1c6.1-4.8,11.8-5.9,19.4-6.6c7.7-0.7,15.5-1.3,23.2-2
								c5.2-0.4,5.3-8.1,0-8.2c-5.9-0.1-13.7-0.3-13.7-0.3s0,2.2,0,5c7.2-0.8,14.3-1.7,21.5-2.5c5.1-0.6,5.1-7.8,0-8.3
								c-6.2-0.6-12.3-0.7-18.4-0.2c-5.1,0.3-5.1,8.2,0,8.3c9.1,0.1,18.2,0.2,27.3,0.2c-0.3-2.7-0.7-5.4-1-8.1
								c-4.4,1.2-8.9,2.2-13.4,2.9s-3.3,8.1,1,8.1c2.1,0,4.2-0.2,6.2-0.8c6.8-1.9,0.5-18.8-12.5,2.5c-0.1,0.2-0.4,0.2-0.6,0
								c-23.2-30.5-22.3,21.4,2.6-16c0.2-0.2,0.6-0.3,0.7,0c19.2,27.6,24.2,6,15.9,5.7c-5.8-0.2-11.6-0.1-17.4,0.5
								c-5.1,0.5-5.1,8,0,8.3c9.2,0.6,18.3,0.7,27.6,0.5c5.1-0.2,5.1-8.3,0-8.3c-1.7,0-3.3,0-5,0c0.3,2.7,0.7,5.4,1,8.1
								c2.5-0.5,5.1-0.9,7.6-1.4c3.9-0.7,3.6-7.1,0-8c-4.3-1.1-8.8-1.7-13.2-2.1c0.3,2.7,0.7,5.4,1,8.1c2.6-0.5,5.1-1.1,7.7-1.6
								c-0.7-2.7-1.4-5.3-2.1-8c-5.6,1.2-10,4.6-13.1,9.6c-1.3,2.1-0.2,5.6,2.4,6.1c2.7,0.5,5.4,1,8,1.5c-0.6-2.3-1.2-4.6-1.7-7
								c-10.3,11.6-20.5,23.1-30.8,34.7c1.9,2,3.7,3.9,5.6,5.9c10.8-12.5,21.7-25.1,32.6-37.6c-2.1-1.7-4.1-3.3-6.2-5.1
								c-13.8,26.9-25.8,58.4-51.6,75.3c-13.4,8.8-28.5,10.7-44,12.7c-16,2.1-33,5.6-49,3.7c1.1,2.1,2.3,4.1,3.4,6.2
								c3.2-6.3,12-10.1,17.5-13.8c6.9-4.6,13.8-9.2,20.6-13.8C164,206.5,160.1,199.4,155.7,202.2L155.7,202.2z"/>
						</g>
					</g>
					<g>
						<g>
							<path class="st3" d="M228.9,148.6c-29.8,19.5-56.5,43.4-79.2,70.9c-3.5,4.3,2.8,10.6,6.4,5.6c9.7-13.5,22.4-24.6,36.4-33.6
								c20.7-13.3,35.2-35.8,56.7-48.2c-1.7-2.2-3.4-4.4-5.2-6.7c-8.4,10.5-18.6,19.1-30.5,25.5c2,1.6,4.2,3.2,6.2,4.8
								c2.3-8,10-12.2,16.9-16.1c-1.4-2.5-2.9-4.9-4.3-7.3c-6,3.7-12.1,6.5-18.8,8.4c-5.3,1.4-3.1,9.5,2.3,8.2
								c10.9-2.6,21.9-3.5,33-2.8c-1-2.4-2-4.8-3-7.2c-8.1,7.8-17.5,13.8-28.1,17.6c1.4,2.4,2.7,4.8,4.2,7.1
								c9.9-8.8,21.8-14.3,34.8-16.4c-1.4-2.4-2.7-4.8-4.2-7.1c-7.8,7.7-17.3,12.9-28,15.5c1.6,2,3.2,4.2,4.8,6.2
								c4.6-8.5,11.7-15,20.7-18.3c-1.4-2.4-2.7-4.8-4.2-7.1c-1.8,2-3.4,3.2-6,4.1c1.8,1,3.5,2,5.3,3c0.3,1.1,3.2-0.6,4-0.9
								c1.8-0.6,3.6-1,5.4-1.3c3.9-0.7,7.8-0.7,11.7-0.4c-1-2.4-2-4.8-3-7.2c-5,5.9-11.6,9.6-19.4,10.2c1.2,2.1,2.5,4.3,3.7,6.4
								c2.5-4.5,6.4-7.1,11.6-7.1c-1.4-1.8-2.7-3.6-4.1-5.4c-1.7,11.4-16,18.3-25.3,22.8c1.4,2.5,2.9,4.9,4.3,7.3
								c2.2-1.4,4.4-2.6,7.1-3.2c1.4-0.3,2.7-0.5,4.2-0.6c2,0.3,2.4,0.1,0.8-0.3c-0.2-1.1-0.3-2.2-0.4-3.3c-0.4,2.9-4.8,6-6.9,7.8
								c-3.1,2.7-6.3,5.3-9.6,7.7c-6.1,4.3-12.6,7.8-19.5,10.8c2,0.9,4.2,1.7,6.2,2.6c-1.4-4.5,9.2-10.2,12.2-11.9
								c2.5-1.4,5.1-2.6,7.8-3.6c0.9-0.3,7.5-2.7,7.7-2.4c-0.2-1.1-0.3-2.2-0.4-3.3c-3.2,7.8-13.9,12.7-21.1,15.5
								c-8.5,3.4-17.4,4.9-26.6,4.9c1.2,0.7,2.5,1.4,3.7,2.1c-0.1,1.4,0.3,1.4,1.2-0.2c0.6-0.5,1.2-0.9,1.8-1.4
								c1.4-1,2.8-1.9,4.3-2.7c3.1-1.8,6.4-3.2,9.8-4.3c6.7-2,13.6-2.4,20.5-1.5c-1.4-1.8-2.7-3.6-4.1-5.4
								c-1.7,7-10.8,9.4-16.8,11.2c-3.7,1.2-7.5,2.1-11.3,3c-1,0.3-11.1,1.9-11.1,2.2c-0.2,1.1-0.3,2.2-0.4,3.3
								c4.3-7.2,12.6-11.1,20.2-14.1c8.4-3.2,17.2-5.1,26.2-5.6c-0.7-2.6-1.4-5.3-2.1-7.9c-11.6,4.9-24,7.2-36.6,7.1
								c1,2.4,2,4.8,3,7.2c6.5-7.4,15.3-11.6,25.3-11.9c-1.4-1.4-2.8-2.8-4.3-4.3c0,0.9-6.2,4.4-7,4.9c-2.6,1.7-5.2,3.3-7.9,4.8
								c-5.6,3.1-11.5,5.6-17.6,7.7c1.4,2.4,2.7,4.8,4.2,7.1c5.2-5.7,11.6-9.8,18.5-13c3.5-1.6,7.1-2.9,10.7-4.1
								c1.3-0.4,10-2.8,9.6-3.7c0.3-1.7,0.4-3.4,0.7-5.2c-10.7,10.9-23.8,18.5-38.6,22.2c1.6,0.7,3.2,1.3,4.8,2
								c-0.2-0.3-0.3-0.7-0.4-1c0.2,1.1,0.3,2.2,0.4,3.3c0.8-2.7,5-5.7,7.1-7.5c2.7-2.3,5.7-4.3,8.8-5.9c6.1-3.3,12.7-5.3,19.6-6.3
								c-1.6-2-3.2-4.2-4.8-6.2c-2,4.6-5.4,7.7-9.8,10.3c-1.3,0.8-12.2,5.7-12.1,6c-1.4-2.5,9.3-10.2,10.7-11.1
								c5-3.1,10.6-5,16.5-5.6c-1.4-1.4-2.8-2.8-4.3-4.3c0.3,5.8-9.2,9-13.6,10.7c-5.6,2.1-11.4,3.4-17.3,4c1.4,1.4,2.8,2.8,4.3,4.3
								c-0.1-4,6.3-6.5,9.6-8.2c1.5-0.8,3.4-1.9,5-2.6c6.6-2.8,13.4-5,20.5-6.2c1.1-0.2,10.5-2,11-1.1c0.3-1.4,0.8-2.7,1.1-4.2
								c-8.1,8.7-18.8,13.9-30.6,14.7c1.2,2.1,2.5,4.3,3.7,6.4c6.3-8.3,15.3-13.5,25.4-15.4c-1.4-2.4-2.7-4.8-4.2-7.1
								c-9.1,8.2-20.4,13.4-32.7,14.6c1.2,2.1,2.5,4.3,3.7,6.4c2.6-4.4,6.5-7.2,11.6-7.7c-1-2.4-2-4.8-3-7.2
								c-10.4,10.3-23.1,17.2-37.4,20.4c1.8,1.8,3.5,3.5,5.3,5.3c0.5-2,1.4-3.7,3.5-4.5c-1.1-2.6-2.2-5.2-3.3-7.7
								c-10.5,6.2-21.7,10.5-33.6,12.8c1.4,2.4,2.7,4.8,4.2,7.1c6.1-6.1,13.2-10.7,21.3-13.5c-1.4-2.4-2.7-4.8-4.2-7.1
								c-9.6,8.2-20.4,15-32.1,19.8c1.4,2.4,2.7,4.8,4.2,7.1c8.8-7.5,18.9-13.1,29.8-16.8c-1.4-2.4-2.7-4.8-4.2-7.1
								c-9.4,7.5-20,13.6-31.2,18c1.1,2.6,2.2,5.2,3.3,7.7c4.3-2,8.6-3.2,13.3-3.5c-0.7-2.6-1.4-5.3-2.1-7.9
								c-12.8,7.2-25.9,13.9-39.4,20c1.4,2.5,2.9,4.9,4.3,7.3c6.1-2.8,12.5-4.7,19.1-5.9c-1.1-2.6-2.2-5.2-3.3-7.7
								c-8.2,6-16.9,11.1-26.1,15.4c-4.3,2-1.2,9.5,3.3,7.7c5-2,9.9-3.8,15-5.8c-1.1-2.6-2.2-5.2-3.3-7.7c-3.4,2.2-6.8,3.9-10.6,5.2
								c1.1,2.6,2.2,5.2,3.3,7.7c8.2-4.5,16.8-7.4,26.1-8.4c-1-2.4-2-4.8-3-7.2c-5,4.2-10.3,7.9-15.9,11.2c-4.8,2.9-0.6,9.4,4.3,7.3
								c13-5.7,27-9.2,41.1-10.5c-0.7-2.6-1.4-5.3-2.1-7.9c-7.8,4.8-16.3,7.7-25.5,8.2c1,2.4,2,4.8,3,7.2c3.7-3.1,8-3.9,12.8-3.5
								c-1-2.4-2-4.8-3-7.2c-8.6,10.6-26.2,12.4-34.5,18.4c-4.8,3.5-10.9,4.2-16.9,3.8c-6.1-0.5-6.3,7-1.9,8.3
								c11.3,3.5,22.1-1.1,32.1-6.3c11.6-6,23.2-11.1,35.8-14.8c-1.4-2.4-2.7-4.8-4.2-7.1c-6.4,7.7-14.5,13.3-24.2,16.1
								c-5.3,1.5-3.1,9.7,2.3,8.2c8-2.2,15.9-3,24.1-2.3c-0.3-2.8-0.8-5.5-1.1-8.3c-9.4,3.7-19,5-29,3.9c0,2.8,0,2.9,0,5.6
								c7.3-0.9,14.5,0.2,21.7,0.5c6.9,0.2,13.6-0.7,20.2-2.5c13.9-3.6,27.2-9,40.6-14.1c27-10.2,55.7-20.2,84.9-14.9
								c2,0.4,4.4-0.6,5-2.8c2.7-12.4-0.8-25.7-4.3-37.6c-3.4-11.6-8.7-23.2-18-31.4c-3.9-3.5-8.6-6.7-13.6-8.2
								c-3.6-1-8.6-0.1-8.7,4.6c0,2.6,1.5,3.5,3.4,4.8c2.8,1.9,5.6,4,8.2,6.2c5.1,4.4,9.6,9.2,13.8,14.5c1.6-2.1,3.2-4.2,4.9-6.4
								c-10.1-5.9-20.4-11.2-31.1-16c-3.9-1.7-8.6,3-4.9,6.4c4.5,4.1,9.6,7.1,15.5,9c0.7-2.6,1.5-5.2,2.2-7.8
								c-5.6-1.2-11.1-2.3-16.7-3.6c0,2.6,0,7.2,0,7.2s6.8-2.4,10.8-3.1c3.8-0.7,3.7-5.7,1-7.5c-4.5-3-9.4-5.1-14.5-6.4
								c-1.6-0.4-3.9,0.2-4.6,1.9c-2.6,5.5-5.7,10.7-9.3,15.7c-2.1,2.9,1.4,7.2,4.6,6c4.3-1.6,8.5-3.5,12.6-6
								c4.5-2.7,0.4-9.8-4.1-7.1C242,169,217.4,184.1,193,199.6c-4.4,2.8-0.5,9.7,4.1,7.1c10.4-5.7,21.3-10.5,32.5-14.4
								c-1.3-2.3-2.6-4.6-4-6.9c-12.1,10.2-25.8,18.2-40.6,23.6c1.6,2,3.1,4,4.6,6c2.7-6.2,6.9-11.2,12.8-14.7
								c-1.4-2.4-2.8-4.8-4.1-7.1c-11.5,7.5-23.5,14.1-36.2,19.4c1.3,2.3,2.6,4.6,4,6.9c6.2-7.8,14.1-13.7,23.5-17.2
								c-1.3-2.3-2.6-4.6-4-6.9c-7.8,9-17.1,15.8-28.1,20.5c1.6,2.1,3.3,4.3,5,6.5c6.2-7.3,13-13.9,20.8-19.4
								c-1.6-2.1-3.3-4.3-5-6.5c-9.4,9-19.2,17.6-29.5,25.7c2,2,3.9,3.9,5.8,5.8c6.6-7.4,14.5-13,23.6-16.9c-1.6-2.1-3.3-4.3-5-6.5
								c-7.7,7.1-15.7,13.9-23.9,20.3c-3.7,2.9,1.1,8.8,5,6.5c10.3-6.2,21.1-11.6,32.3-16c-1.3-2.3-2.6-4.6-4-6.9
								c-7,8.5-15.2,15.6-24.7,21.1c1.6,2.1,3.3,4.3,5,6.5c10.5-8.7,22.3-15.6,35-20.4c-1.3-2.3-2.6-4.6-4-6.9
								c-6,7.1-12.9,12.9-20.8,17.6c1.6,2.1,3.3,4.3,5,6.5c7.1-6.9,15.3-12.2,24.5-15.8c-1.7-1.7-3.4-3.4-5.1-5.1
								c-1.1,3.6-4.6,6.1-7.4,8.5c-3.3,2.8-6.6,5.5-10.1,8.1c-6.2,4.7-12.6,9-19.3,13c1.6,2.1,3.3,4.3,5,6.5
								c6.5-7.4,14.5-12.9,23.9-15.9c-1.6-2-3.1-4-4.6-6c-5.4,9.8-13.9,17.5-24.4,21.5c1.3,2.3,2.6,4.6,4,6.9
								c11.5-14,25.4-25.4,41.5-33.6c-1.9-1.9-3.8-3.8-5.6-5.6c-4.1,7.5-9.8,13.3-17.4,17.5c1.6,2.1,3.3,4.3,5,6.5
								c9.4-11.7,20.6-21.3,33.6-28.8c-1.9-1.9-3.8-3.8-5.6-5.6c-6.8,9.2-15,17.3-24.2,24c1.9,1.9,3.8,3.8,5.6,5.6
								c8.3-13.4,19.7-24.1,33.4-31.8c-1.6-2.1-3.3-4.3-5-6.5c-5.1,5.1-10.5,9.8-16.4,14c-2.9,2-5.7,3.9-8.8,5.7
								c-1.1,0.7-7.1,4.4-7.6,4.1c0.5,1.9,1,3.8,1.5,5.6c5.4-9.7,13-17.5,22.5-23.2c-1.6-2.1-3.3-4.3-5-6.5
								c-5.4,7-11.4,13.2-18.1,19c2,2,3.9,3.9,5.8,5.8c6.7-7,14.6-12.4,23.5-15.9c-1.6-2-3.1-4-4.6-6c-1.6,3-3.2,6.1-4.8,9.1
								c-1.7,3.3,2.1,8.3,5.6,5.6c12.6-9.4,25-18.8,37.6-28.2c-1.9-1.9-3.8-3.8-5.6-5.6c-1.7,3-3.9,5.3-6.8,7.3
								c1.9,1.9,3.8,3.8,5.6,5.6c6.1-9.4,13.9-17.1,23.5-23c-1.9-1.9-3.8-3.8-5.6-5.6c-5.3,7.1-11.6,13.3-18.5,18.9
								c2.1,1.6,4.3,3.3,6.5,5c3.1-6.4,7.4-11.7,13.2-15.8c-1.9-1.9-3.8-3.8-5.6-5.6c-3.4,5-7.8,9.1-13,12.5
								c1.9,1.9,3.8,3.8,5.6,5.6c4.1-6.3,10-11,17.1-13.5c-1.6-2-3.1-4-4.6-6c-3.2,4.3-8.6,5.6-13.6,4.1c0.8,2,1.6,4,2.5,6
								c1.8-3.9,8.3-3.6,12-3.8c1.3-0.1,12.1-0.2,12.7,1.1c0.9,2.4-11.7,4.7-12.7,4.8c-4.4,0.4-8.6-0.2-12.8-1.6
								c1,1.7,1.9,3.4,2.9,5.1c3.1-9.8,21.2-10.2,29.3-9.6c-1.3-1-2.6-2-3.9-3c0.2,0.7,0.6,1.5,0.8,2.3c0.3-1.3,0.7-2.6,1.1-4
								c-4.7,4.3-10.3,6-16.7,5.4c1.1,2.1,2.4,4.1,3.5,6.2c1.3-1.7,2.8-1.6,4.3-2.6c2.4,0.6,2.7-0.1,0.9-2.1
								c-0.6,0.1-1.1,0.2-1.8,0.2c-1.5-0.3-3.1-0.1-4.7-0.6c-2.4-0.8-4.7-3-1-4.2c2.3-0.7,7.1,1.1,9.1,2.1c3.1,1.4,5.3,3.3,6.2,6.7
								c0.3-1.3,0.7-2.6,1.1-4c-2.2,2.1-4.8,3.5-7.8,4.2c-2.1,0.4-8.4,1.2-3.9-1.6c5.7-3.6,13-3.4,19.1-1.4c-1-1.3-2-2.6-3-3.9
								c-0.2,2.2-8.5,3.4-10.2,3.6c-3.7,0.4-7.3,0.1-10.9-0.7c0.8,2,1.6,4,2.5,6c3.1-4.3,9.7-4.1,13.1-0.4c-0.2-1.6-0.4-3.3-0.7-5
								c-0.9,1.6,0.3,0.3,0.3,0.3v7.1c0,0,5.7-4.6,11-4.3c2.5,0.1,4.1-0.3,2.5,1.8c-1.6,2.1-5.3,2.4-7.5,2.4
								c1.4,1.4,2.7,2.7,4.1,4.1c0.1-2.2,0.8-3.4,2.3-5.1c1.3-1.5,2.5-1.8-0.1-0.7c-3,1.3-5.3,1.9-8.5,0.8c1,1.7,1.9,3.4,2.9,5.1
								c0.7-2.3,3.4-2.7,5.2-1.6c-0.5-1.9-1-3.8-1.5-5.6c-3,4.3-7.6,7-12.8,7.5c0.3,2.7,0.7,5.3,1.1,8c1.6-0.6,7.7-2.5,9.1-0.7
								c1.6,2.1-5.1,3.6-6.2,3.9c1.3,2.3,2.6,4.6,4,6.9c3.4-3.6,7.9-5.5,12.9-4.7c-1-1.7-1.9-3.4-2.9-5.1c-0.5,0.3-0.9,0.7-1.4,1
								c1,1.7,1.9,3.4,2.9,5.1c0.4-3,1.2-5.8,3-8.5c0.3-0.5,0.7-1,1.1-1.4c1-0.6,0.9-1.1,3.5-1.3v2c-4,1.1-4.6,2.1-5.5,1.8h5.8
								c-1.5-0.7-1.1-2.5,0-4.1c-2.5-0.3-5-0.7-7.5-1c0.7,2-0.2,4-2.5,4c1.1,2.1,2.4,4.1,3.5,6.2c-1.8-0.5-3.3-0.1-4.3,1.1
								c-0.5,0.5-1.1,1.1-1.6,1.6c-0.9,1-1.6,2-2.4,3.1c-1.1,1.7-0.5,4.7,1.5,5.6c1.2,0.9,2.5,0.9,3.9-0.1c1.1,2.1,2.4,4.1,3.5,6.2
								c1.8-3.4,6.5-9.8,11.1-9.4c-1-0.4-2-0.8-2.9-1.2c0.4,0.4-3.5,4.2-3.7,4.3c2,0.8,4,1.6,6,2.5c-1.5-3.8-1.6-7.3,0.2-11
								c-2.5-1.1-5-2.1-7.5-3.2c-0.6,3.6-1.7,6.6-3.7,9.6c2.5,0.7,5.1,1.4,7.6,2.1c-0.3-3,0.5-5,2.8-6.9c-2.3-0.6-4.6-1.2-6.9-1.8
								c0.3,2,0,3.9-0.8,5.7c2.5,0.7,5.1,1.4,7.6,2.1c0.1-2.1,0.7-3.4,2.1-5.1c-2.5-1.1-5-2.1-7.5-3.2c-0.7,4.3-1.7,12-5.4,14.6
								c-1.9,1.4-4.9,1.4-7.2,1.8c-3,0.6-6,1.1-9,1.6c-11.3,2.1-22.7,4.1-34.1,6.2c-22.6,4.1-45.1,8.2-67.8,12.3
								c0.7,2.6,1.5,5.3,2.2,7.9c8.5-2.2,16.8-5.2,24.9-8.8c-1.4-2.4-2.8-4.8-4.1-7.1c-7.4,3.4-15,5.8-23,7.5c1.3,2.3,2.6,4.6,4,6.9
								c2.5-2.3,5-3.8,8.2-4.8c-1.3-2.3-2.6-4.6-4-6.9c-4.7,3.8-9.8,6.9-15.1,9.6c-4.4,2.3-1.1,8.2,3.2,7.5c1-0.2,2-0.3,3-0.5
								c4.6-0.7,3.4-8.2-1.1-8c-10.7,0.3-21.3,0.5-31.9,0.2c-2.6-0.1-3.5,0.2-5.2-1.6c-1.1-1.2-1.6-2.9-2.7-4.1
								c-2.3-2.4-5.3-3.3-8.5-2.4c-4.5,1.2-3.5,8,1.1,8c33.3,0.2,66.8,0,99.5-7.6c3.7-0.9,4.1-7.3,0-7.9c-9.8-1.4-19.6-1.9-29.5-1.3
								c0.7,2.5,1.4,5.1,2.1,7.6c9.4-5,19.4-8.8,29.8-11.4c-1.1-2.5-2.1-5-3.2-7.5c-6.6,4.5-13.5,8.3-20.9,11.3
								c1.6,2.1,3.3,4.3,5,6.5c8.6-7.9,17.9-14.9,27.7-21.2c4.6-2.9,0.6-9.1-4.1-7.1c-1.6,0.7-19,8.5-18.9,8.6
								c0.2,1.1,0.2,2.1,0.4,3.2c3.1-8,7.5-15.4,13.1-22c3.4-3.9-2.2-9.8-5.8-5.8c-4,4.5-8.1,8.9-12.1,13.5c2.1,1.6,4.3,3.3,6.5,5
								c5.9-8.5,13.5-15.6,22.4-21c-1.9-1.9-3.8-3.8-5.6-5.6c-4.3,9.8-9.9,18.7-17.1,26.6c2.1,1.6,4.3,3.3,6.5,5
								c5-7.9,11.2-14.8,18.8-20.3c-1.9-1.9-3.8-3.8-5.6-5.6c-5.4,10-11.9,19.2-19.5,27.7c2,2,3.9,3.9,5.8,5.8
								c7.1-9.1,15.4-16.7,25.2-22.6c-1.9-1.9-3.8-3.8-5.6-5.6c-4.8,11-11.9,20.3-21.4,27.7c2.1,1.6,4.3,3.3,6.5,5
								c6.5-11.1,15.6-19.9,26.8-26c-1.9-1.9-3.8-3.8-5.6-5.6c-4.7,9.5-12,16.7-21.6,21.3c1.9,1.9,3.8,3.8,5.6,5.6
								c6-10.1,14.5-17.9,25.1-23.1c-1.9-1.9-3.8-3.8-5.6-5.6c-5.3,9.2-12.4,16.7-21.4,22.2c1.9,1.9,3.8,3.8,5.6,5.6
								c5.4-10.4,13.8-18.3,24.5-23.1c-1.6-0.2-3.3-0.4-5-0.7c0.8,0.7,1.6,1.4,2.4,2.1c-0.2-1.6-0.4-3.3-0.7-5
								c-7.2,11.3-16.8,20.6-28.3,27.6c1.6,2.1,3.3,4.3,5,6.5c8.9-10.5,20.6-17.6,34-20.8c-1.6-0.7-3.1-1.2-4.6-1.9
								c0.1-1.5-0.2-1.8-0.9-0.8c-0.6,0.6-1.2,1.1-1.9,1.6c-1,0.8-2,1.6-3,2.5c-2.5,1.8-5,3.4-7.6,4.9c-5.3,2.9-10.8,4.9-16.7,6.4
								c1.3,2.3,2.6,4.6,4,6.9c6.6-8.6,15.3-14.8,25.8-18c-1.6-0.7-3.1-1.2-4.6-1.9c0.2,0.2,0.2,0.4,0.4,0.6
								c-0.2-1.1-0.2-2.1-0.4-3.2c-0.4,1.1-5.4,3.1-6.6,3.9c-2.9,1.6-5.7,3.1-8.8,4.5c-5.9,2.7-12.1,4.8-18.5,6.4
								c1.3,2.3,2.6,4.6,4,6.9c6.4-5.6,13.9-9.4,21.9-12.4c3.8-1.4,7.6-2.7,11.5-3.9c3.9-1.2,8.3-3.1,12.1-1.1
								c-0.2-2.1-0.6-4.3-0.8-6.5c-6.8,6.1-14.3,11.3-22.4,15.6c-4,2.1-8.1,4-12.4,5.6c-3,1.1-9.8,4.6-12.9,3.4
								c0.8,0.7,1.6,1.2,2.5,1.9c-0.2-0.3-0.4-0.6-0.6-0.9c-0.5,1.9-1,3.8-1.5,5.6c10.7-8,22.6-13.2,35.7-15.8
								c-1.3-2.3-2.6-4.6-4-6.9c-7.5,7-16.3,11.3-26.3,13.1c1.1,2.5,2.1,5,3.2,7.5c6.6-5,13.9-8.6,21.8-11.2
								c3.9-1.2,7.7-2.3,11.7-3.2c1.6-0.4,3.4-0.8,5.1-1.1c1.1-0.2,2.2-0.4,3.4-0.3c0.9,0.9,1.6,0.9,1.8-0.1c1.3,2.3,2.6,4.6,4,6.9
								c3.5-3.1,7.5-4.9,12.1-5.9c5.3-1.1,3-8.8-2.2-7.9c-11.7,1.9-23.5,3.2-35.3,3.9c0.7,2.5,1.4,5.1,2.1,7.6
								c5.6-2.7,11.3-3.4,17.5-2.7c-1.3-1.7-2.6-3.4-3.9-5.2c-0.6,2.2-1.9,3.5-4.3,3.6c1,2.3,2,4.7,2.9,7
								c6.3-6.1,13.4-10.8,21.3-14.5c-1.6-2.1-3.3-4.3-5-6.5c-2.9,2.6-5.9,4.7-9.3,6.6c-4.8,2.5-0.6,9.2,4.1,7.1
								c3.6-1.6,7.2-3.3,10.8-4.9c3.5-1.6,2-6.4-1-7.5c-7.6-2.9-14.9-6.4-21.9-10.4c0.2,2.1,0.6,4.3,0.8,6.5
								c2.8-2.2,5.8-3.3,9.3-3.8c-1.1-2.5-2.1-5-3.2-7.5c-7.1,4.6-14.7,6.4-23,5.4c1,2.3,2,4.7,2.9,7c1.1-0.9,2.4-1.5,3.8-1.6
								c-1.1-2.5-2.1-5-3.2-7.5c-1.2,0.4-2.5,0.3-3.5-0.3c0.6,2.3,1.2,4.6,1.8,6.9c1.5-1.4,2.9-2.5,4.8-3.2c4.8-1.9,3.1-9-2.2-7.9
								c-3,0.7-5.8,0.8-8.9,0.7c1,2.3,2,4.7,2.9,7c0.1-0.1,0.1-0.1,0.2-0.2c-1-2.3-2-4.7-2.9-7c-1.2,1.4-1.8,2.4-2.3,4.2
								c-0.7,2.4,1.2,5.5,3.9,5.2c5.1-0.6,9.9-0.2,14.9,1.1c0.3-2.7,1.1-7.3,1.1-7.3s0.9,0-0.1,0c0.3,2.7,0.7,5.3,1.1,8
								c5.6-0.8,11,0.5,15.9,3.3c-0.5-1.9-1-3.8-1.5-5.6c-5.8,10.3-14.7,18.5-25.7,23c1.1,2.5,2.1,5,3.2,7.5
								c2.3-1.1,4.5-1.5,7.1-1.4c5.3,0.1,5.3-8.1,0-8.2c-4.1-0.1-7.6,0.8-11.2,2.5c-4.1,2-1.2,9.3,3.2,7.5
								c13.1-5.4,23.7-14.4,30.7-26.7c1.1-2,0.5-4.5-1.5-5.6c-6.9-4-14.3-5.3-22.2-4.1c-4.7,0.7-3.4,8,1.1,8c1.1,0,2.1,0,3.1,0
								c4.6,0,5.6-6.9,1.1-8c-5.7-1.5-11.4-2-17.2-1.4c1.3,1.7,2.6,3.4,4,5.2c0.1-0.2,0.2-0.3,0.2-0.6c2.4-2.7,0.7-6.8-2.9-7
								c-2.5-0.2-4.5,0.7-6,2.6c-2.2,2.8-0.9,6.8,2.9,7c3.8,0.2,7.4-0.2,11.1-0.9c-0.7-2.6-1.5-5.3-2.2-7.9c-3.3,1.3-6,2.9-8.5,5.3
								c-2.5,2.3-0.9,5.7,1.8,6.9c3.5,1.4,6.5,0.9,9.9-0.5c4.5-1.9,1.1-8.3-3.2-7.5c-3,0.6-5.1,1.7-7.4,3.6c-3.1,2.5-0.2,6.6,2.9,7
								c9.7,1.1,19.3-1.2,27.4-6.6c4.1-2.7,1.3-8.1-3.2-7.5c-5,0.7-9.1,2.8-13.1,5.9c-2.1,1.6-1.3,5.3,0.8,6.5
								c7.8,4.3,15.8,8.1,24.1,11.2c-0.3-2.5-0.7-5-1-7.5c-3.6,1.6-7.3,3.3-10.9,4.9c1.4,2.4,2.8,4.8,4.1,7.1c4-2.1,7.6-4.8,11-7.8
								c3.7-3.3-1-8.3-5-6.5c-8.6,3.9-16.3,9.3-23.1,15.8c-2.6,2.4-0.7,7.1,2.9,7c6-0.2,10.8-3.8,12.3-9.7c0.7-2.8-1.3-4.8-4-5.2
								c-7.6-0.9-14.9,0.6-21.7,3.9c-3.6,1.8-1.9,7.9,2.1,7.6c12.6-0.8,25.2-2.2,37.8-4.3c-0.7-2.6-1.5-5.3-2.2-7.9
								c-6,1.3-11.2,4-15.8,8c-3.3,2.9,0.3,7.6,4.1,6.9c4.6-0.9,6.6-6,5.2-10.2c-2.1-6-8.8-6.2-14.1-5.3
								c-14.7,2.5-29.6,7.5-41.6,16.4c-3.7,2.8-1.6,8.4,3.2,7.5c11.4-2.1,21.7-7.4,30.2-15.3c3.2-3-0.2-7.5-4.1-6.9
								c-13.8,2.6-26.7,8.3-37.9,16.6c-1.7,1.3-2.7,3.5-1.5,5.6c2.8,4.6,7.7,3.4,12.2,2.1c5.6-1.6,11.1-3.7,16.4-6.1
								c11.2-5,21.3-11.8,30.4-19.9c2-1.7,1.4-5.3-0.8-6.5c-8.8-4.8-19.8,0.4-28.4,3.5c-9.9,3.5-19.3,8-27.4,15.1
								c-3.2,2.8,0.2,7.8,4.1,6.9c9.1-2.3,17.9-5.6,26.2-10c4.3-2.2,17.3-7.5,12.9-14.3c-1-1.5-2.9-2.5-4.6-1.9
								c-11.7,3.6-22.1,10.4-29.7,20.1c-2.4,3.1-0.3,7.9,4.1,6.9c8.7-2.1,17-5.7,24.5-10.7c4.7-3.2,14.8-9.1,10.8-15.9
								c-0.9-1.6-2.9-2.3-4.6-1.9c-14.8,3.5-28,11.5-37.9,23c-2.9,3.4,0.7,9,5,6.5c12.7-7.7,23.4-18.1,31.5-30.5
								c0.9-1.5,0.7-3.9-0.7-5c-0.8-0.7-1.7-1.4-2.4-2.1c-1.5-1.3-3.2-1.5-5-0.7c-11.9,5.3-21.7,14.5-27.7,26.1
								c-1.8,3.5,2,7.9,5.6,5.6c10.2-6.2,18.6-14.7,24.6-25c2.1-3.8-2.1-7.4-5.6-5.6c-11.8,5.7-21.6,14.8-28.3,26
								c-2.2,3.8,2.1,7.3,5.6,5.6c10.7-5.2,19.3-13.6,24.6-24.3c1.8-3.6-1.9-7.6-5.6-5.6c-12.5,6.8-22.8,16.7-30,29
								c-2.6,4.3,3,7.7,6.5,5c10-7.8,17.8-17.8,22.8-29.4c1.5-3.4-1.8-8-5.6-5.6c-10.4,6.3-19.6,14.4-27.1,24
								c-3.1,4,2.2,9.8,5.9,5.8c8.1-8.9,15.1-18.8,20.9-29.4c1.8-3.3-2.1-8.2-5.6-5.6c-8.8,6.5-16,14.2-21.9,23.3
								c-2.5,3.9,3.3,8.5,6.5,5c7.7-8.4,14-17.8,18.5-28.2c1.5-3.4-1.8-8-5.6-5.6c-10.2,6.2-18.8,14.2-25.5,24
								c-2.6,3.9,3.4,8.5,6.5,5c4.1-4.5,8.2-8.9,12.2-13.5c-2-2-3.9-3.9-5.9-5.8c-4.1,4.7-7.7,9.7-10.6,15.1
								c-1.9,3.5-6.4,10.1-4,14.1c2.3,3.7,7,3.4,10.7,2.1c6.5-2.3,13-5.5,19.3-8.2c-1.4-2.4-2.8-4.8-4.1-7.1
								c-10.5,6.6-20.4,14.1-29.7,22.4c-3.8,3.4,1,8.1,5,6.5c7.4-3.1,14.4-6.9,21.1-11.3c3.8-2.5,1.5-8.7-3.2-7.5
								c-11.2,2.8-21.8,6.9-32,12.2c-3.6,1.9-2,7.9,2.1,7.6c9.2-0.6,18.4-0.2,27.5,1.1c0-2.6,0-5.3,0-7.9c-32.2,7.4-65.1,7.5-98,7.3
								c0.3,2.7,0.7,5.3,1.1,8c0.2-0.1,4.8,6.3,5.9,7c3.1,1.7,7,1.4,10.4,1.5c10.1,0.2,20.1,0.1,30.2-0.2c-0.3-2.7-0.7-5.3-1.1-8
								c-1,0.2-2,0.3-3,0.5c1.1,2.5,2.1,5,3.2,7.5c6-3,11.6-6.7,16.9-10.9c3.3-2.6-0.3-8-4.1-6.9c-4.6,1.3-8.4,3.5-11.9,6.8
								c-3.1,3,0.2,7.6,4.1,6.9c8.8-1.8,17-4.6,25.1-8.3c4.8-2.2,0.7-9.3-4.1-7.1c-7.4,3.4-15.1,6-23.1,8c-5.2,1.3-3,8.9,2.2,7.9
								c25.5-4.6,50.8-9.2,76.3-13.8c12.5-2.2,24.9-4.5,37.4-6.7c4.6-0.8,8.5-1.6,11.1-5.9c2.9-4.7,4.4-10.6,5.3-15.9
								c0.8-4.7-4.7-6.9-7.5-3.2c-2.1,2.8-3,5.7-3.1,9.2c-0.2,3.9,6,5.8,7.7,2.1c1.8-4,2.3-7.7,1.7-12.1c-0.5-3.4-4.8-3.5-6.9-1.8
								c-3.8,3.2-5.7,7.8-5.2,12.7c0.4,4,5.3,5.6,7.7,2.1c2.4-3.5,3.9-7.3,4.5-11.6c0.7-4.2-5.4-7.7-7.5-3.2
								c-2.7,5.6-3.3,11.5-1,17.3c0.9,2.2,3.7,4.1,6,2.5c4.5-3.2,12.9-15,3.6-18.2c-7.4-2.5-16.4,7.8-19.3,13.3
								c-1.4,2.5,0.3,6.4,3.6,6.2c3.6-0.2,6.5-2.5,6.9-6.4c0.3-4.3-3-7.1-6.6-8.8c0.5,1.9,1,3.8,1.5,5.6c2.8-4.3,9.3-8.7,5-14.6
								c-2.8-3.9-8.7-3.6-11,0.5c-1.5,2.6,0.3,6.2,3.6,6.2c7.4-0.2,12.9-7.3,10.5-14.4c-1.2-3.4-5.6-4-7.5-1
								c-3.3,5-2.5,10.7,1.2,15.1c1.4,1.7,4.4,1.5,5.9,0c4.5-4.4,7.3-16.8-1.6-18.6c-8.3-1.7-13.4,10.7-14.2,17
								c-0.3,2.1,0.5,4.4,2.9,5.1c5.3,1.3,10.2-1.4,11.6-6.7c0.5-2-0.7-4.7-2.9-5.1c-7.9-1.3-15.5,0.9-21,6.8
								c-2.8,3-0.1,7.8,4.1,6.9c6.5-1.5,14.3-6,12.2-13.9c-2.1-8-13.4-7.2-19.6-5.1c-4.1,1.4-3.8,8.5,1.1,8
								c8.3-0.8,15.2-4.7,20.1-11.6c1.3-1.8,0.3-4.5-1.5-5.6c-6.6-4-14.9-0.7-17.4,6.5c-0.7,2.1,0.9,4.3,2.9,5.1
								c5,1.6,10.4,1.1,14.9-1.6c3.9-2.4,7.9-7.2,5.2-11.8c-2.2-3.9-7.5-4.5-11.3-3c-5.5,2.2-8.3,7.8-8.6,13.4c-0.1,2.3,2,4,4.1,4.1
								c6.9,0.2,23.5-7.5,16.2-16.6c-3-3.7-9.2-4.1-13.6-3.9c-5.9,0.2-11.4,2.1-16.2,5.4c-2.7,1.9-2.5,5.2,0,7.1
								c4.8,3.7,11.7,1.8,14.5-3.3c0.9-1.6,0.7-3.6-0.7-5c-7.4-7.9-20.1-6.4-26.2,2.1c-1.5,2.1,0,5.5,2.5,6
								c9.4,2.1,30.6,2.4,31.7-10.7c0.2-1.9-1.4-3.4-3.1-3.9c-6.4-2.1-13.6-2.4-20.1-0.2c-5.1,1.7-12.3,5.3-12.4,11.6
								c-0.1,6.2,6.5,8,11.7,8c6.4,0,12.3-2.6,17-6.9c1.1-1,1.4-2.6,1.1-4c-2.2-9.8-13.1-14.4-22.4-14.9c-11.2-0.5-17.2,11.2-7,18
								c5.5,3.6,24.8,5.9,22.8-5.6c-0.7-4.2-5.3-5.9-9.1-5.9c-5.2,0-9.4,2.7-12.5,6.7c-2.1,2.7,0.8,5.9,3.6,6.2
								c8.4,0.8,16.4-2.1,22.6-7.8c1-0.9,1.6-2.7,1.1-4c-0.2-0.7-0.6-1.5-0.8-2.3c-0.7-1.8-2.1-2.9-4-3
								c-12.6-0.8-32.9,1.4-37.4,15.7c-0.7,2.1,0.8,4.4,2.9,5.1c8.1,2.5,16.9,2.7,24.9-0.1c5.5-1.9,13.7-6.6,10.8-13.8
								c-2.9-7.1-14.3-6.8-20.6-6.6c-6.8,0.2-16,0.9-19.3,7.8c-1.2,2.4-0.2,5.3,2.5,6c8.8,2.6,17.6-0.7,23.1-7.9
								c2.1-2.8-1.4-7.1-4.6-6c-9.3,3.3-16.8,9.1-22.2,17.3c-2.2,3.4,2.2,7.8,5.6,5.6c6.4-4.1,11.7-9.2,16-15.4
								c2.3-3.4-2.3-8-5.6-5.6c-7,4.8-12.6,11-16.3,18.7c-2.1,4.3,2.8,7.9,6.5,5c7.5-6,14.1-12.9,19.9-20.5c2.6-3.4-2.3-7.6-5.6-5.6
								c-10.7,6.6-19.7,15.3-26.5,25.9c-2.2,3.4,2.2,7.9,5.6,5.6c4.1-2.7,7.3-6.1,9.8-10.3c2-3.3-2.2-8.2-5.6-5.6
								c-12.6,9.4-25.2,18.8-37.9,28.2c1.9,1.9,3.8,3.8,5.6,5.6c1.6-3,3.2-6.1,4.8-9.1c1.5-2.9-1.1-7.5-4.6-6
								c-10.4,4.1-19.6,10-27.4,18.1c-3.7,3.9,1.8,9.2,5.9,5.8c6.7-5.7,12.7-12.1,18.2-19c2.6-3.4-0.7-9-5-6.5
								c-10.7,6.4-19.5,15.3-25.6,26.2c-1.2,2.1-0.3,4.3,1.5,5.6c5.9,4.4,16.4-4.2,21.2-7.3c7.9-5.1,15.2-11.1,21.8-17.7
								c3.3-3.3-0.9-8.7-5-6.5c-15,8.4-27.5,20.3-36.6,34.8c-2.1,3.3,2.2,8.1,5.6,5.6c10.5-7.6,19.6-16.6,27.4-27
								c2.6-3.4-2.3-7.5-5.6-5.6c-13.6,7.8-25.6,17.9-35.5,30c-2.8,3.4,0.7,8.8,5,6.5c8.7-4.8,15.7-11.7,20.5-20.3
								c2-3.7-2-7.5-5.6-5.6c-16.8,8.6-31.6,20.4-43.6,35c-2.3,2.8-0.2,8.5,4.1,6.9c12.6-4.8,23-13.5,29.5-25.3c1.7-3-1.2-7.2-4.6-6
								c-10.7,3.5-20.3,9.6-27.7,18.1c-3,3.4,0.8,9,5,6.5c8.1-4.8,15.8-10.2,23.3-15.9c6.4-5,15.1-10.3,17.6-18.5
								c0.8-2.8-2.1-6.2-5.1-5.1c-10.7,4.2-20.1,10.1-28.4,18c-3.4,3.3,1,8.8,5,6.5c8.6-5,16.2-11.3,22.6-18.8
								c2.4-2.8,0.2-8.5-4.1-6.9c-14.3,5.3-27.3,12.8-38.9,22.5c-3.6,3,1.1,8.7,5,6.5c10.2-5.8,19.1-13.4,26.5-22.4
								c2.3-2.8,0.2-8.5-4.1-6.9c-12,4.7-23.5,10.3-34.5,16.8c1.7,2.1,3.3,4.3,5,6.5c8.3-6.5,16.3-13.2,24.1-20.3
								c3.7-3.4-1-8.1-5-6.5c-9.8,4.2-18.4,10.3-25.5,18.2c-3.6,4,1.7,9,5.9,5.8c10.2-8.1,20.2-16.7,29.7-25.7
								c3.3-3.1-1.2-9.2-5-6.5c-8.4,6-16,12.8-22.6,20.7c-3.1,3.7,0.7,8.3,5,6.5c11.6-4.8,21.8-12.3,30-21.7
								c2.4-2.8,0.2-8.5-4.1-6.9c-10.7,4-20.1,10.4-27.4,19.4c-2.2,2.7-0.2,8.6,4.1,6.9c13.5-5.6,26.3-12.3,38.4-20.3
								c4.4-2.9,0.4-9.8-4.1-7.1c-7.1,4.2-12.6,10.1-15.9,17.6c-1.2,2.9,0.9,7.4,4.6,6c16.4-5.9,31.2-14.5,44.6-25.7
								c3.1-2.6-0.2-8.1-4.1-6.9c-12,4-23.6,9.1-34.7,15.2c1.4,2.4,2.8,4.8,4.1,7.1c24.6-15.5,49.3-30.6,74.4-45.3
								c-1.4-2.4-2.8-4.8-4.1-7.1c-3.4,2.1-6.9,3.8-10.7,5.2c1.6,2,3.1,4,4.6,6c3.6-5,6.7-10.2,9.3-15.7c-1.6,0.7-3.1,1.2-4.6,1.9
								c4.6,1.1,8.7,3,12.6,5.6c0.3-2.5,0.7-5,1-7.5c-4.1,0.7-8,1.7-11.9,3.1c-3.6,1.2-4.3,7,0,7.9c5.7,1.2,11.4,2.4,17.1,3.6
								c5.2,1.1,7.3-6.3,2.2-7.9c-4.6-1.5-8.6-3.7-12.2-7c-1.7,2.1-3.3,4.3-5,6.5c10.9,4.8,21.5,10.3,31.8,16.2c4.3,2.5,7.8-3,5-6.5
								c-7.3-9.1-15.9-16.8-25.6-23.2c0.7,1.1,1.4,2.4,2.1,3.5c0-0.2,0-0.6,0.1-0.8c-0.7,1.1-1.4,2.4-2.1,3.5c0.1,0,2.4,0.9,3.1,1.2
								c1.4,0.7,2.8,1.5,4.1,2.4c2.3,1.6,4.5,3.4,6.4,5.5c4.8,5,8.3,11.2,10.7,17.6c2.5,6.3,4.1,13,5.6,19.6
								c1.7,7.3,3.1,14.7,1.4,22.2c1.7-1,3.4-1.9,5.1-2.9c-29.4-5.3-58.3,3-85.8,13c-14.1,5.3-28.1,10.8-42.7,15.1
								c-7.2,2.1-14.5,3.8-22,3.5c-7.8-0.2-15.4-1.5-23.1-0.5c-5.3,0.7-5.4,7.6,0,8.2c10.3,1.1,20.7-0.2,30.4-4.1
								c4.3-1.7,3.7-7.7-1.1-8c-8.7-0.7-17.3,0.2-25.6,2.5c0.7,2.6,1.5,5.3,2.2,7.9c10.7-3.1,20.1-9.1,27.2-17.6
								c2.5-3,0.2-8.1-4.1-6.9c-10.5,3-20.7,7-30.4,11.8c-9.5,4.8-20,11.9-31.2,8.5c0,2.6,0,6.6,0,9.3c11.1-2.6,22-6,32.7-10.1
								c8.7-3.4,18.3-6.8,24.3-14.2c2.4-3,0.8-6.9-3-7.2c-7.1-0.7-13.3,1.5-18.8,6c-4.2,1.6-1.9,6.9,1.7,6.6
								c10.7-0.8,20.7-3.8,29.8-9.4c3.3-2,2.3-8.3-2.1-7.9c-15.7,1.5-30.9,5.4-45.4,11.7c1.4,2.5,2.9,4.9,4.3,7.3
								c6.2-3.7,12.1-7.9,17.6-12.6c2.7-2.3,0.6-7.7-3-7.2c-10.8,1.2-20.9,4.3-30.4,9.6c-4.2,2.3-1.4,9.3,3.3,7.7
								c4.5-1.4,8.7-3.4,12.7-6c3.7-2.5,1.4-9.6-3.3-7.7c-5,2-9.9,3.8-15,5.8c1.1,2.6,2.2,5.2,3.3,7.7c9.3-4.3,17.9-9.4,26.1-15.4
								c3.9-2.9,1.6-8.6-3.3-7.7c-7.4,1.3-14.4,3.6-21.1,6.7c-5,2.3-0.7,9.6,4.3,7.3c13.4-6,26.5-12.7,39.4-20
								c3.6-2,2.1-8.2-2.1-7.9c-6.3,0.4-12,2-17.6,4.7c-4.3,2-1.2,9.5,3.3,7.7c12.7-5,24.2-11.7,34.9-20.2c3.3-2.6-0.3-8.4-4.2-7.1
								c-12.3,4.3-23.5,10.6-33.5,19c-3.1,2.6,0.3,8.8,4.2,7.1c13.1-5.5,25-12.8,35.9-22c3.2-2.7-0.2-8.5-4.2-7.1
								c-9.5,3.3-18,8.5-25.2,15.7c-3.1,3.1,0.1,7.9,4.2,7.1c12.6-2.4,24.6-7,35.6-13.6c4-2.4,1.4-9.6-3.3-7.7
								c-4.8,2-8.2,5.2-9.4,10.5c-0.8,3.2,2,6,5.3,5.3c15.6-3.6,29.8-11.3,41.2-22.5c2.5-2.5,0.8-7.6-3-7.2
								c-8.2,0.7-14.9,4.8-19,11.8c-1.4,2.6,0.3,6.7,3.7,6.4c14.6-1.4,27.9-7.2,38.7-17.2c3.4-3.1-0.3-7.8-4.2-7.1
								c-12.4,2.4-23,9.3-30.5,19.3c-2,2.6,0.7,6.5,3.7,6.4c14.1-0.9,27-6.8,36.6-17.2c0.9-1,1.7-2.7,1.1-4.2c-2-4.8-6-6.3-11.1-6.1
								c-8.1,0.3-16.6,2.4-24.1,5c-6.5,2.2-12.8,5.1-18.6,8.8c-4.7,2.9-9,6.6-8.8,12.7c0.1,2.1,1.9,4.4,4.3,4.3
								c8.9-0.8,17.5-3,25.7-6.8c6.7-3.1,14.1-8,13.8-16.3c-0.1-2.1-1.9-4.5-4.3-4.3c-8.9,0.9-17.3,3.8-24.4,9.3
								c-5.3,4.1-13.9,11.8-10.7,19.5c3.4,8.1,13.3,3.1,18.8,0.5c7.6-3.4,14.7-8.2,18.2-16.1c1.6-3.6-1-6.8-4.8-6.2
								c-9.8,1.4-19.1,5-27.3,10.7c-5.6,3.9-16.8,11.2-13.3,19.2c0.8,1.7,3.1,2.4,4.8,2c16.2-4.1,30.7-12.5,42.3-24.4
								c1.4-1.4,1.5-3.4,0.7-5.2c-1.9-3.7-5.9-4.1-9.6-3.2c-5.4,1.3-10.8,3.3-16,5.3c-10,3.9-19.4,9-26.7,17c-2.7,3-0.1,8.5,4.2,7.1
								c8.2-2.8,16.2-6.3,23.6-10.8c5-3.1,15.3-7.9,15.1-14.8c-0.1-2.3-1.9-4.3-4.3-4.3c-12.1,0.3-23.2,5.3-31.2,14.4
								c-2.4,2.7-0.9,7.2,3,7.2c14.2,0.3,27.9-2.6,40.9-8.2c3.9-1.7,1.9-8.2-2.1-7.9c-12.7,0.8-24.9,3.7-36.3,9.4
								c-5.6,2.7-22.5,12.1-16.8,20.3c2.6,3.7,7.4,3.3,11.2,2.8c6.6-0.9,13.2-2.3,19.6-4.3c9.4-2.9,21-6.8,23.6-17.4
								c0.8-3-1.4-5-4.1-5.4c-10.3-1.4-20.7,0.3-30.1,4.6c-6.6,3-19,9.4-14.7,18.3c0.6,1.4,2.3,2.1,3.7,2.1c12.2,0,24-2.6,34.9-7.8
								c5-2.4,9.9-5.3,14-8.9c2.8-2.5,8.1-7.9,7-12.2c-3.9-14.5-48.8,7.1-43.6,23.5c0.9,2.9,3.7,3.7,6.2,2.6
								c13.6-6,27.4-14.6,37.2-25.9c3.3-3.8,4.3-10.3-1.8-12.2c-6.3-1.9-14.4,1.3-19.6,4.6c-4.7,3-0.6,9.7,4.3,7.3
								c11.4-5.4,27.2-14.1,29.3-27.9c0.4-2.6-1.1-5.4-4.1-5.4c-8.1,0.1-15.1,4.2-19,11.3c-1.4,2.6,0.3,6.6,3.7,6.4
								c9.9-0.8,18.9-5,25.4-12.7c2.5-2.9,0.8-7-3-7.2c-8.2-0.6-31.8,0.2-29.3,13.3c0.4,2.2,3.1,3.6,5.3,3c3.9-1.2,7.1-3.1,9.8-6.2
								c2.6-2.9,0.2-8.7-4.2-7.1c-11.2,4.1-20.4,11.8-26,22.5c-1.6,3.1,1.3,6.8,4.7,6c12.1-2.9,23-8.9,31.9-17.6
								c3.2-3.2-0.2-7.7-4.2-7.1c-14.5,2.4-27.6,8.8-38.5,18.6c-3.1,2.8,0.2,8.5,4.2,7.1c12-4.3,22.8-10.9,31.9-19.7
								c2.8-2.7,0.5-7.1-3-7.2c-11.9-0.8-23.6,0.3-35.2,3.1c0.8,2.7,1.5,5.4,2.3,8.2c7.4-2.1,14.4-5.2,20.8-9.3
								c4.6-2.9,0.5-10-4.3-7.3c-8.9,5-17.8,10.9-20.8,21.2c-1.1,3.7,3.1,6.5,6.2,4.8c12.5-6.7,23.4-15.7,32.2-26.9
								c2.8-3.6-0.7-9.3-5.2-6.7c-18.1,10.5-31.3,27.6-47.1,41.1c-16.4,13.8-33.9,26.4-48.1,42.6c2,2,4,4,6,6
								c22.1-27,48.2-50.5,77.5-69.6C237.7,152.9,233.5,145.6,228.9,148.6L228.9,148.6z"/>
						</g>
					</g>
					<g>
						<g>
							<path class="st4" d="M211.4,137.6c-16.7,13.1-29.9,29-42.5,46.1c-13.3,18.1-27.3,35.4-42,52.4c-3.4,3.9,2.4,9.8,5.8,5.8
								c14.4-16.6,28.2-33.4,41.2-51c12.8-17.5,26.2-34,43.3-47.4C221.3,140.1,215.5,134.4,211.4,137.6L211.4,137.6z"/>
						</g>
					</g>
					<g>
						<g>
							<path class="st4" d="M257.6,129.6c-10.8,4.2-16.7,12.1-22.3,22c-6.5,11.2-12.4,22.6-19,33.6c-11.8,19.5-26.7,37.9-48.1,47.3
								c-4.8,2.1-0.7,9.2,4.1,7.1c19.6-8.6,34.4-24.7,46-42.3c6.7-10.3,12.6-21,18.5-31.8c5.8-10.4,11.1-23.5,23-28.1
								C264.6,135.5,262.5,127.7,257.6,129.6L257.6,129.6z"/>
						</g>
					</g>
					<g>
						<g>
							<path class="st4" d="M288.5,147.4c-7.3,4.1-12,10.9-16.5,17.8c-5.7,8.6-11.5,17.2-17.3,25.8c-5.7,8.4-11.3,16.7-17.1,24.9
								c-3,4.3-6.1,8.8-9.2,13.1c-2.7,3.9-5.3,7.8-9.6,10.2c-4.6,2.5-0.5,9.7,4.1,7.1c7.7-4.3,12.2-12.7,17.1-19.7
								c5.9-8.5,11.8-17.1,17.6-25.6c5.7-8.3,11.3-16.7,16.9-25c5.1-7.6,9.8-16.8,18-21.5C297.3,152,293.2,144.8,288.5,147.4
								L288.5,147.4z"/>
						</g>
					</g>
					<g>
						<g>
							<path class="st4" d="M309.3,156.2c-16.9,0.2-26.3,14.9-33.7,28.2c-7.8,13.9-13.7,28.9-22.2,42.4c-2.8,4.5,4.3,8.6,7.1,4.1
								c7.6-12.2,13.2-25.6,19.9-38.3c6-11.4,13.9-28.1,28.9-28.3C314.5,164.3,314.5,156.1,309.3,156.2L309.3,156.2z"/>
						</g>
					</g>
					<g>
						<g>
							<path class="st5" d="M124.5,223.2c26.2,3.3,52.5,4.6,78.9,3.9c5.3-0.2,5.3-8.4,0-8.2c-26.3,0.7-52.8-0.7-78.9-3.9
								C119.2,214.3,119.2,222.5,124.5,223.2L124.5,223.2z"/>
						</g>
					</g>
					<g>
						<g>
							<path class="st5" d="M129.2,215c28.2-1.7,56.5-0.9,84.7,2.5c5.3,0.7,5.2-7.5,0-8.2c-28.1-3.4-56.5-4.3-84.7-2.5
								C123.9,207.1,123.9,215.3,129.2,215L129.2,215z"/>
						</g>
					</g>
					<g>
						<g>
							<path class="st5" d="M174.3,170.3c24.9-2.1,49.8-1.6,74.6,1.3c5.3,0.7,5.2-7.5,0-8.2c-24.8-3-49.7-3.4-74.6-1.3
								C169.1,162.5,169,170.7,174.3,170.3L174.3,170.3z"/>
						</g>
					</g>
					<g>
						<g>
							<path class="st5" d="M182.1,158.4c24.2-0.7,48.3-0.5,72.5,0.7c5.3,0.2,5.3-8,0-8.2c-24.1-1.1-48.3-1.4-72.5-0.7
								C176.8,150.3,176.8,158.5,182.1,158.4L182.1,158.4z"/>
						</g>
					</g>
					<g>
						<g>
							<path class="st5" d="M219.7,219.9c1.1,0.4,2.2,0.8,3.4,1.2c0.2,0.1,0.5,0.2,0.8,0.3c0.7,0.2-0.5-0.2,0.2,0.1
								c0.5,0.2,1.1,0.5,1.6,0.7c2.1,1,4.3,2.1,6.3,3.4c4.3,2.5,7.2,4.8,10.7,8.1c1.6,1.5,4.3,1.6,5.8,0c1.5-1.6,1.6-4.3,0-5.8
								c-7.6-7.2-16.7-12.6-26.6-16c-2.1-0.7-4.6,0.8-5.1,2.9C216.4,217.2,217.5,219.2,219.7,219.9L219.7,219.9z"/>
						</g>
					</g>
					<g>
						<g>
							<path class="st5" d="M211.1,231.5c4.3,0,7.1,0.3,11.2,1.2c2,0.5,3.9,1.1,5.7,1.7c1.9,0.7,2.9,1.1,4.8,2.1
								c1.9,1,4.5,0.6,5.6-1.5c1-1.9,0.6-4.6-1.5-5.6c-8-4.1-16.8-6.3-25.8-6.2c-2.1,0-4.2,1.9-4.1,4.1
								C207.1,229.6,208.8,231.5,211.1,231.5L211.1,231.5z"/>
						</g>
					</g>
					<g>
						<g>
							<path class="st5" d="M257.2,174c10.8-0.2,21.3,4.3,29,11.7c9,8.5,13.1,20.2,17.1,31.7c1.7,5,9.6,2.9,7.9-2.2
								c-4.4-13-9.4-26.3-19.8-35.8c-9.4-8.5-21.6-13.8-34.3-13.5C252,165.9,252,174.1,257.2,174L257.2,174z"/>
						</g>
					</g>
					<g>
						<g>
							<path class="st5" d="M261.3,161.2c7,0.7,13.4,3.6,19.5,6.8c5.7,3,11.9,5.8,16.7,10.1c4.9,4.3,7.4,10,9.8,15.9
								c3,7.3,5.9,14.5,8.9,21.8c0.8,2.1,2.7,3.4,5.1,2.9c2-0.5,3.7-3,2.9-5.1c-3.2-7.9-6.4-15.8-9.7-23.7
								c-2.9-6.9-6.1-13.4-11.9-18.3c-5.6-4.6-12.1-8-18.6-11.2c-7.2-3.7-14.6-6.6-22.7-7.4C256.1,152.4,256.2,160.7,261.3,161.2
								L261.3,161.2z"/>
						</g>
					</g>
					<g>
						<g>
							<path class="st6" d="M289,143.9c3,0.5,6,1.1,8.9,1.7c1.4,0.3,2.9,0.7,4.3,1.1c0.7,0.2,1.3,0.4,2.1,0.7c0.3,0.1,0.7,0.2,1,0.3
								c0.1,0,0.9,0.4,0.4,0.2c0.6,0.2,1.1,0.6,1.7,0.8c0.3,0.2,0.6,0.3,0.9,0.6c0.1,0.1,0.2,0.2,0.3,0.2c-0.2-0.2-0.2-0.2-0.1,0
								c0.5,0.4,1,0.9,1.4,1.4c0.4,0.5-0.4-0.7,0.2,0.2c0.2,0.2,0.2,0.4,0.4,0.7c0.5,0.9-0.2-0.4,0.1,0.2c0.1,0.3,0.2,0.6,0.2,0.9
								c-0.2-0.6,0-0.2,0,0.2c0,0.3-0.2,0.9,0.1,0.1c-0.1,0.2-0.2,0.4-0.2,0.7c0.1-0.7,0-0.2-0.1,0.1c-0.2,0.6,0.2-0.6-0.1,0.2
								c0.1-0.1,0.2-0.2,0.3-0.2c-0.4,0.2-0.4,0.2,0.1,0c-2.1,0.7-3.6,2.8-2.9,5.1c0.7,2,2.9,3.6,5.1,2.9c3.9-1.4,6.2-5.3,5.8-9.4
								c-0.4-4.2-2.9-7.5-6.2-9.9c-3-2.1-6.6-3.1-10.1-4.1c-3.8-1-7.5-1.8-11.4-2.4c-2.1-0.3-4.5,0.6-5.1,2.9
								C285.7,140.9,286.8,143.6,289,143.9L289,143.9z"/>
						</g>
					</g>
					<g>
						<g>
							<path class="st6" d="M301.2,148.4c0.3,0.1,0.7,0.2,1.1,0.4C302,148.7,301.6,148.5,301.2,148.4c1.1,0.4,2.1,1,3,1.7
								c-0.2-0.2-0.6-0.4-0.8-0.7c0.9,0.7,1.7,1.6,2.5,2.5c-0.2-0.2-0.4-0.6-0.7-0.8c0.7,0.9,1.3,1.9,1.7,3c-0.2-0.3-0.2-0.7-0.4-1
								c0,0,0,0.1,0.1,0.1c0.2,0.6,0.4,1,0.7,1.4c0.3,0.4,0.7,0.8,1.1,1.1c0.9,0.5,2.2,0.7,3.2,0.4c1-0.3,2-0.9,2.5-1.9
								c0.5-0.9,0.8-2.1,0.4-3.2c-0.5-1.2-1.1-2.5-1.8-3.5s-1.6-2.1-2.5-3c-2-1.8-4.3-3.1-6.8-4c-1-0.3-2.3-0.1-3.2,0.4
								c-0.8,0.5-1.6,1.5-1.9,2.5C297.9,145.6,299,147.7,301.2,148.4L301.2,148.4z"/>
						</g>
					</g>
					<g>
						<g>
							<path class="st7" d="M138.5,191.8c-7.9,8.4-15.7,16.8-23.5,25.2c-6.3,6.8-14.4,13.8-17.3,22.9c-2.6,8.4,1.1,17,8.7,21.3
								c8.4,4.9,18.5,3,26.7-1.6c4.6-2.6,0.5-9.7-4.1-7.1c-6,3.4-13.9,5.3-19.8,0.7c-6.2-4.8-4-11.9-0.1-17.4
								c4.8-6.6,11-12.3,16.6-18.2c6.2-6.7,12.5-13.4,18.7-20.1C147.9,193.6,142.1,187.8,138.5,191.8L138.5,191.8z"/>
						</g>
					</g>
					<g>
						<g>
							<path class="st7" d="M108.6,253.5c8.5-4,17.8-0.7,26.1,2c8.1,2.7,16.3,4.7,24.9,5.2c17.2,1,34.2-3.2,50.2-9.4
								c17-6.5,33.5-13.3,51.4-16.9c17.7-3.5,35.7-5.1,53.6-7.2c7.7-0.9,10.5-3.9,10.5-11.7c0-8.5-0.7-17.1-2.4-25.5
								c-3-15.2-9.5-29.9-20.2-41.1c-21-22.1-56.7-24.3-84.9-17.8c-16.2,3.8-30.6,11.8-41.8,24.2c-6.2,7-12.2,13.9-19.3,20.1
								c-7.1,6.2-14.3,12.1-20.3,19.2c-3.4,3.9,2.4,9.8,5.8,5.8c9.8-11.3,22.4-19.8,32.4-31c9.9-11.2,19.1-21.2,33.3-26.7
								c12.9-5.1,26.8-6.7,40.6-6.3c15.3,0.5,31.1,3.4,43.2,13.3c11.2,9.1,18.2,22.2,21.9,35.9c2.1,8.2,3.2,16.6,3.4,25
								c0.1,1.9,0.2,3.8,0.1,5.7c-0.1,2.7-0.6,2.4-3.3,2.7c-4.2,0.5-8.4,0.9-12.6,1.4c-16.1,1.7-32.2,3.6-47.9,7.2
								c-15.8,3.6-30.6,9.9-45.7,15.8c-17.3,6.6-35.8,11.1-54.4,8.5c-16.4-2.4-32.3-13.4-48.8-5.4
								C99.7,248.8,103.9,255.8,108.6,253.5L108.6,253.5z"/>
						</g>
					</g>
					<g>
						<g>
							<path class="st7" d="M274.6,137.4c-16.2,6.7-22.2,22.5-30.2,36.8c-8.7,15.7-20.9,30.8-33.6,43.3
								c-12.6,12.4-32.1,17.6-49.2,20c-9.6,1.4-19.3,1.6-29,1.7c-10,0.1-20.3,0.6-30.1-1.5c-5.2-1.1-7.4,6.8-2.2,7.9
								c9.4,2,18.9,1.7,28.4,1.8c9.8,0,19.8-0.2,29.6-1.2c17.3-2,36.5-6.6,51-16.7c7-4.9,12.4-11.5,17.9-18
								c5.9-6.9,11.7-13.9,16.9-21.3c5.5-7.8,9.6-16.2,14-24.5c4.3-8.2,9.8-16.7,18.7-20.3C281.6,143.3,279.6,135.3,274.6,137.4
								L274.6,137.4z"/>
						</g>
					</g>
				</g>
			</g>
		</g>
		<g>
		</g>
		<g>
			<circle class="st8" cx="215" cy="218.2" r="157.6"/>
			<path class="st9" d="M84.2,99.7c0.2,0.2,0.4,0.1,0.7,0c1.4-1,3.1-1.5,4.9-1.6c1.9-0.1,3.5,0.4,5,1.6c2.2,1.8,3.3,5.2,3.3,10
				c0,4.8-1.3,8.8-3.9,11.9c-0.7,0.9-1.4,1.5-2.1,1.8c-0.6,0.3-1.1,0.3-1.4,0.1c-1.5-1.2-1.4-2.9,0.4-5c0.2-0.3,0.6-0.7,1.2-1.3
				c0.5-0.6,1-1.4,1.3-2.5c0.3-1.1,0.6-2.2,0.7-3.4c0.1-1.2,0.1-2.3,0-3.3s-0.3-1.9-0.6-2.8c-0.3-0.8-0.8-1.5-1.4-2
				c-1-0.8-2.3-1.1-3.8-0.9c-1.5,0.2-2.9,1.1-4.1,2.5c-0.2,0.2-0.5,1-0.8,2.1c-0.3,1.2-0.6,1.9-0.9,2.2c-0.8,0.9-1.4,1.4-1.8,1.4
				s-0.9-0.2-1.5-0.7c-0.4-0.3-0.1-1.8,0.7-4.4c0.7-2.2,1-4.7,0.8-7.5C80.7,95,80,93.2,79,92.3c-0.7-0.6-1.5-0.8-2.4-0.5
				c-0.9,0.2-1.8,0.9-2.7,1.9c-1.5,1.8-2.7,3.7-3.7,5.8c-1,2.1-1.4,3.4-1.2,3.9c0.2,0.5,2.7,3.3,7.4,8.5c4.7,5.2,7.4,8.2,8.3,8.9
				c0.8,0.7,1.6,1.3,2.3,1.9c0.7,0.6,1.2,1.2,1.5,1.9c0.3,0.7,0.1,1.4-0.5,2.1c-0.5,0.6-1.2,0.9-2,0.9s-1.6-0.4-2.3-1.1
				c-0.2-0.2-0.5-0.5-0.8-0.9c-2-2.7-4.8-6-8.3-9.8c-3.5-3.8-5.5-6-6.2-6.5c-0.5-0.4-0.9-0.6-1.3-0.7c-0.3-0.1-0.7,0.2-1.1,0.6
				c-0.2,0.2-0.3,0.4-0.4,0.6c-0.1,0.2-0.4,0.3-0.8,0.3c-0.4,0-0.7-0.2-1.1-0.4c-1-0.9-0.7-3.4,1.1-7.5c1.8-4.2,4.1-8,6.9-11.4
				c1.5-1.8,3.1-2.8,5-3.2c1.9-0.3,3.5,0,4.7,1.1c0.9,0.8,1.7,2.2,2.1,4.2C84.2,94.8,84.4,97.1,84.2,99.7z"/>
			<path class="st9" d="M116.5,85c1,1.2,1.2,3.5,0.5,7c-0.7,3.5-2.2,6.1-4.4,8c-1.9,1.6-3.8,2.3-5.8,2c-2-0.2-3.8-1.4-5.5-3.4
				c-2.8-3.3-4.4-7.5-4.7-12.4c-0.3-4.9,0.9-8.5,3.6-10.8c0.9-0.7,1.8-1.1,2.9-1c1,0.1,1.9,0.6,2.6,1.4c1.5,1.8,2.1,4.3,1.7,7.4
				s-1.4,6.7-3,10.8c-0.3,0.8-0.3,1.5,0.1,2c0.8,1,1.8,1.5,2.8,1.6s2.1-0.3,3.2-1.2c2.5-2.1,3.9-5.7,4.2-10.7
				c0.1-0.7,0.2-1.1,0.4-1.3C115.5,84.3,116,84.4,116.5,85z M102,92.6c2.5-7.1,3-11.6,1.4-13.4c-0.6-0.7-1.2-0.8-1.8-0.3
				c-1.1,0.9-1.6,2.7-1.6,5.4C99.9,87.1,100.6,89.8,102,92.6z"/>
			<path class="st9" d="M123.7,78.7c0-0.3-0.1-0.7-0.1-1.3c-0.4-2.6-0.5-4.7-0.5-6.3c0-1.6,0.2-3.2,0.4-4.8c0.2-1.6,0.6-2.9,1-3.9
				c0.4-1,0.8-1.8,1.3-2.4c0.5-0.6,1-1.1,1.5-1.4c1.1-0.7,2.3-0.9,3.4-0.7c1.1,0.2,2,0.8,2.6,1.7c0.3,0.4,0.3,0.8,0.3,1.3
				c-0.1,0.5-0.3,0.9-0.9,1.2c-0.5,0.3-1.2,0.4-1.9,0.2c-0.8-0.2-1.4-0.1-1.9,0.2c-1.4,0.8-2.2,3.6-2.6,8.4
				c-0.4,4.8,0.4,9.3,2.3,13.5c0.5,1.1,0.7,1.9,0.5,2.5c-0.2,0.6-0.6,1-1.2,1.4c-0.6,0.4-1.4,0.2-2.3-0.6c-0.9-0.8-2-2.3-3.4-4.5
				c-0.4-0.6-1.2-2-2.4-4.1c-1.4-2.5-2.5-4.6-3.2-6.2c-0.1-0.3-0.4-0.9-0.9-1.9c-0.5-1.1-0.8-1.8-1-2.3c-0.1-0.5-0.1-1,0.2-1.6
				c0.2-0.6,0.6-1.1,1.1-1.4c0.5-0.3,0.9-0.4,1.4-0.2s0.8,0.4,1,0.8c0.3,0.5,0.6,1.3,0.9,2.4c0.3,1.2,0.6,2,0.8,2.5
				c0.2,0.5,0.4,1,0.6,1.5c0.2,0.6,1,2.2,2.3,4.6l0.4,0.7L123.7,78.7z"/>
			<path class="st9" d="M159.2,62.2c0.6,1.4,0.1,3.7-1.6,6.8c-1.7,3.1-3.8,5.3-6.5,6.4c-2.3,1-4.3,1.1-6.1,0.3
				c-1.8-0.8-3.2-2.4-4.2-4.8c-1.7-4-2-8.4-0.9-13.2c1.1-4.8,3.3-7.9,6.5-9.3c1.1-0.5,2.1-0.5,3-0.1c1,0.4,1.7,1.1,2.1,2.1
				c0.9,2.2,0.8,4.7-0.5,7.6c-1.3,2.9-3.3,6.1-6,9.5c-0.6,0.7-0.7,1.3-0.5,1.9c0.5,1.2,1.2,2,2.2,2.4c1,0.4,2.1,0.3,3.4-0.2
				c3-1.3,5.4-4.3,7.1-9c0.3-0.7,0.5-1,0.8-1.1C158.5,61.2,158.9,61.4,159.2,62.2z M143.2,65.2c4.4-6.1,6.2-10.2,5.3-12.4
				c-0.4-0.8-0.9-1.1-1.7-0.8c-1.3,0.6-2.3,2.1-3.1,4.7C142.8,59.4,142.6,62.2,143.2,65.2z"/>
			<path class="st9" d="M168.8,43.5c1.5-0.5,2.9-1.1,4.2-1.6c1.3-0.5,2.4-0.9,3.3-1.1c1.1-0.3,1.9-0.4,2.2-0.3
				c0.4,0.1,0.6,0.4,0.7,1c0.3,1.2-0.3,2.1-2,2.6c-2.1,0.7-4,1.4-5.8,2.2c-1.7,0.7-2.7,1.2-2.8,1.4c-0.1,0.2-0.1,2.1,0.1,5.6
				s0.4,5.8,0.7,6.8c0.4,1.6,0.9,2.6,1.5,3.1c0.6,0.4,1.3,0.5,2.1,0.3c1.3-0.3,2.8-1.8,4.5-4.3c0.7-1,1.2-1.6,1.7-1.7
				c0.6-0.2,1,0.1,1.2,0.8c0.3,1.1-0.4,2.7-1.9,5c-1.6,2.2-3.4,3.7-5.6,4.2c-3.6,1-5.9-0.6-7.1-4.8c-0.4-1.5-0.7-4-0.8-7.4
				c-0.1-3.4-0.3-5.4-0.5-6c-0.1-0.2-0.3-0.3-0.6-0.2l-2.2,0.8c-1.9,0.5-3,0-3.4-1.5c-0.2-0.9,0.1-1.4,1-1.6l4.6-1.2
				c0.3-0.1,0.5-0.3,0.7-0.6c0.2-0.3,0.3-1.4,0.3-3.1c0-1.7,0-3.4-0.1-5.1c-0.1-1.6,0.4-2.6,1.4-2.9c0.6-0.2,1.2-0.1,1.7,0.3
				s0.8,0.7,0.9,1.1c0.1,0.2,0.1,1.3,0.1,3.4L168.8,43.5z"/>
			<path class="st9" d="M225.9,42c0,0.2,0.1,0.4,0.5,0.5c1.6,0.5,3.1,1.4,4.3,2.8c1.2,1.4,1.9,3,1.8,4.9c-0.1,2.9-2,5.8-5.7,8.8
				c-3.8,3-7.7,4.5-11.8,4.4c-1.1,0-2-0.2-2.7-0.5c-0.6-0.3-1-0.7-1-1.1c0-1.9,1.4-2.9,4.1-2.8c0.4,0,1,0,1.8,0.1
				c0.8,0,1.7-0.1,2.8-0.5c1.1-0.4,2.1-0.9,3.1-1.6s1.9-1.3,2.6-2c0.7-0.7,1.3-1.4,1.8-2.2c0.4-0.8,0.7-1.6,0.7-2.4
				c0-1.3-0.5-2.5-1.6-3.5c-1.1-1-2.6-1.6-4.5-1.6c-0.3,0-1,0.2-2.2,0.7c-1.2,0.5-1.9,0.7-2.3,0.7c-1.2,0-1.9-0.2-2.2-0.5
				c-0.3-0.3-0.4-0.9-0.4-1.6c0-0.5,1.3-1.2,3.9-2.2c2.2-0.8,4.3-2.2,6.3-4.1c2.1-1.9,3.1-3.5,3.1-4.9c0-0.9-0.4-1.7-1.1-2.2
				s-1.8-0.9-3.2-0.9c-2.3,0-4.5,0.2-6.8,0.7c-2.3,0.5-3.5,1-3.7,1.5s-0.9,4.2-2.1,11.1c-1.1,6.9-1.7,10.9-1.7,12c0,1.1,0,2.1,0,3
				c0,0.9-0.1,1.7-0.5,2.4c-0.4,0.7-1,1-1.9,1c-0.8,0-1.5-0.4-1.9-1c-0.4-0.7-0.7-1.5-0.6-2.5c0-0.3,0.1-0.7,0.2-1.2
				c0.9-3.3,1.7-7.5,2.5-12.6c0.8-5.1,1.2-8.1,1.2-8.9c0-0.6-0.1-1.1-0.2-1.4c-0.2-0.3-0.6-0.5-1.2-0.5c-0.2,0-0.5,0-0.7,0
				c-0.2,0-0.5-0.1-0.7-0.4c-0.2-0.3-0.3-0.7-0.3-1.1c0-1.3,2.2-2.6,6.6-3.9c4.3-1.2,8.8-1.8,13.2-1.7c2.3,0,4.2,0.7,5.6,1.9
				c1.4,1.3,2.1,2.7,2.1,4.4c0,1.2-0.7,2.7-1.9,4.3C229.7,39,228,40.5,225.9,42z"/>
			<path class="st9" d="M243.1,64.3c-2.1-0.4-3.6-1.5-4.6-3.4c-1-1.8-1.3-3.9-0.8-6.2c0.8-3.9,2.9-7.4,6.2-10.6
				c3.4-3.2,6.9-4.5,10.5-3.7c2.4,0.5,4.2,1.8,5.3,4c1.1,2.1,1.4,4.5,0.9,7c-0.8,3.9-3.1,7.2-6.8,9.9
				C249.9,63.9,246.4,64.9,243.1,64.3z M241.7,54.9c-0.3,1.5-0.2,2.8,0.2,3.9s1.2,1.7,2.2,2c2.2,0.5,4.7-0.3,7.5-2.3s4.4-4.5,5-7.5
				c0.4-1.8,0.3-3.4-0.4-4.7c-0.6-1.3-1.7-2.1-3.1-2.4c-2.4-0.5-4.8,0.6-7.1,3.2C243.7,49.6,242.3,52.2,241.7,54.9z"/>
			<path class="st9" d="M280.1,63.7c-3,2.4-5.8,4-8.4,4.9c-2.6,0.9-4.7,1.1-6.3,0.5c-0.9-0.4-1.7-1.3-2.2-2.8s-0.4-3.4,0.5-5.6
				c0.7-1.9,2.2-4.4,4.5-7.7c1.9-2.7,3.1-4.7,3.6-6c0.7-0.7,1.6-0.9,2.4-0.5c0.6,0.2,1,0.6,1.2,1.2s0.2,1.1,0,1.5
				c-0.4,1-1.3,2.3-2.7,3.8c-2.7,3.1-4.6,5.9-5.6,8.4c-0.9,2.3-0.8,3.7,0.3,4.1c1.4,0.5,3.6,0,6.6-1.5c3.1-1.5,6.2-4.1,9.3-7.7
				c1.3-1.4,2.2-2.4,2.7-2.7c0.6-0.4,1.2-0.4,1.8-0.2c1,0.4,1.2,1.2,0.7,2.5c-0.1,0.2-0.4,0.6-1,1.4c-2.1,2.8-3.6,5.6-4.7,8.4
				c-1.3,3.3-1.6,5.7-0.9,7.1c0.4,0.7,0.5,1.3,0.4,1.6c-0.2,0.4-0.6,0.7-1.3,0.8c-0.7,0.1-1.3,0.1-1.8-0.1c-1-0.4-1.5-1.4-1.6-3.2
				c0-1.7,0.5-4,1.6-6.9l0.3-0.7C279.9,64.2,280,64,280.1,63.7z"/>
			<path class="st9" d="M306.5,62.3c1.4,0.7,2.8,1.3,4.1,1.8c1.3,0.6,2.3,1.1,3.1,1.5c1,0.6,1.6,1,1.7,1.4c0.2,0.3,0.1,0.7-0.2,1.2
				c-0.6,1.1-1.7,1.2-3.3,0.5c-2-1-3.9-1.8-5.6-2.6c-1.7-0.7-2.7-1-2.9-1c-0.2,0.1-1.5,1.4-3.9,4c-2.4,2.6-3.9,4.4-4.4,5.3
				c-0.8,1.5-1.2,2.5-1.1,3.2s0.5,1.3,1.3,1.7c1.1,0.7,3.2,0.7,6.2,0.2c1.2-0.3,2-0.3,2.4,0c0.6,0.3,0.7,0.8,0.3,1.4
				c-0.6,1-2.2,1.7-4.9,2.1c-2.7,0.5-5,0.1-6.9-1c-3.2-1.9-3.7-4.7-1.5-8.4c0.8-1.4,2.3-3.3,4.7-5.8c2.3-2.5,3.6-4,3.9-4.6
				c0.1-0.2,0-0.4-0.3-0.6l-2.2-1c-1.7-1-2.2-2.1-1.4-3.5c0.4-0.8,1.1-0.9,1.8-0.5l4.1,2.4c0.3,0.2,0.6,0.2,1,0
				c0.4-0.1,1.2-0.8,2.4-2c1.2-1.2,2.4-2.4,3.6-3.6c1.1-1.2,2.1-1.5,3.1-1c0.6,0.3,0.9,0.8,1,1.4c0.1,0.6,0,1-0.2,1.4
				c-0.1,0.2-0.9,1-2.4,2.4L306.5,62.3z"/>
			<path class="st9" d="M311.4,87.2c-0.7,0.9-1.3,2.1-1.9,3.4c-0.1,0.3-0.2,0.5-0.3,0.6c-0.2,0.2-0.6,0.4-1.2,0.4
				c-0.7,0.1-1.2-0.1-1.7-0.4c-1.2-0.9-1-2.4,0.6-4.6c1.7-2.3,4.8-5.5,9.3-9.7c1.6-1.5,2.5-2.4,2.8-2.8c0.6-0.8,1.2-1.3,1.9-1.7
				c0.7-0.3,1.3-0.3,1.8,0.1c0.6,0.5,1,1,1.2,1.5c0.1,0.6,0.1,1-0.2,1.4c-0.3,0.4-0.7,0.8-1.3,1.3c-3.3,2.6-5.6,4.5-6.8,5.7
				C314.2,83.7,312.8,85.3,311.4,87.2z M329,68.3c-0.3-0.2-0.3-0.6,0-1.3c0.1-0.2,0.1-0.4,0.2-0.7c0.3-1,0.6-1.9,1-2.5
				c0.4-0.5,1-0.8,2-0.9c1-0.1,1.8,0.1,2.5,0.7c0.4,0.3,0.7,0.7,0.9,1.3s0.3,1,0.1,1.3c-0.3,0.4-1,1-2,1.7c-1,0.8-2,1.1-2.9,0.9
				C329.9,68.7,329.3,68.5,329,68.3z"/>
			<path class="st9" d="M331.8,101.4c0-0.1-0.3-0.1-0.8,0c-3.2,0.3-5.9,0.2-8.1-0.3c-2.2-0.5-4-1.3-5.3-2.5c-1-1-1.4-2.2-1.2-3.6
				c0.2-1.4,0.9-2.8,2.2-4.2c2.8-3,7.2-4.9,13.1-5.6s10.3,0.3,13.1,2.9c1,1,1.2,2.2,0.3,3.7c-0.2,0.5-0.2,0.9,0.1,1.2
				c0.8,1.2,0.8,2.3,0,3.2c-0.6,0.6-2.1,1.8-4.6,3.4c-1.7,1.1-4.9,3.3-9.4,6.6s-7.7,5.9-9.6,7.8c-1.3,1.3-2.1,2.1-2.6,2.5
				c-0.5,0.4-1,0.6-1.6,0.5c-0.6-0.1-1.1-0.3-1.6-0.8c-0.5-0.4-0.7-1-0.6-1.6c0.1-0.6,0.4-1.2,0.9-1.7c0.3-0.3,1.6-1.4,3.9-3.1
				c2.3-1.7,4.4-3.3,6.6-4.7C328.8,103.6,330.7,102.3,331.8,101.4z M340.6,94.6c1.6-1.7,1.8-3.2,0.5-4.5c-1.6-1.5-4.8-2-9.4-1.3
				c-4.6,0.7-8,2.1-10.1,4.3c-1.3,1.4-1.5,2.5-0.6,3.3c1.7,1.6,4.9,2.2,9.5,1.9C335.1,98.1,338.5,96.8,340.6,94.6z"/>
			<path class="st9" d="M351.4,120.7c-3.8,0.4-7,0.4-9.7-0.2c-2.7-0.5-4.5-1.5-5.6-2.9c-0.6-0.8-0.8-2-0.5-3.5
				c0.3-1.5,1.4-3.1,3.4-4.5c1.6-1.2,4.2-2.6,7.9-4.2c3.1-1.3,5.1-2.4,6.2-3.2c1-0.2,1.8,0.1,2.4,0.8c0.4,0.5,0.5,1.1,0.4,1.6
				c-0.1,0.6-0.4,1-0.8,1.3c-0.9,0.6-2.3,1.3-4.3,1.9c-3.9,1.2-7,2.6-9.2,4.3c-2,1.5-2.6,2.7-1.9,3.7c0.9,1.2,3,1.9,6.4,2.2
				c3.4,0.3,7.4-0.3,12-1.7c1.8-0.6,3.1-0.9,3.8-0.9c0.7,0,1.2,0.3,1.6,0.8c0.6,0.8,0.4,1.7-0.7,2.5c-0.1,0.1-0.7,0.3-1.6,0.7
				c-3.2,1.3-6,2.9-8.4,4.7c-2.8,2.2-4.3,4-4.5,5.6c-0.1,0.8-0.3,1.4-0.5,1.6c-0.3,0.3-0.8,0.2-1.5,0c-0.7-0.3-1.1-0.6-1.4-1
				c-0.6-0.9-0.5-2,0.3-3.5c0.9-1.5,2.5-3.2,5-5l0.6-0.5C350.9,121,351.2,120.9,351.4,120.7z"/>
			<path class="st9" d="M365.9,149.7c-1.4,0.7-3.7,0.4-6.9-1c-3.2-1.4-5.6-3.4-6.9-6c-1.2-2.2-1.4-4.2-0.8-6.1
				c0.7-1.9,2.1-3.4,4.4-4.6c3.9-2.1,8.2-2.7,13.1-2c4.9,0.7,8.1,2.7,9.8,5.8c0.5,1,0.7,2,0.3,3c-0.3,1-0.9,1.7-1.9,2.2
				c-2.1,1.1-4.6,1.2-7.6,0.1c-3-1-6.3-2.7-10-5.2c-0.7-0.5-1.4-0.6-2-0.3c-1.1,0.6-1.8,1.4-2.2,2.4c-0.3,1-0.2,2.1,0.5,3.4
				c1.5,2.9,4.7,5,9.6,6.3c0.7,0.2,1.1,0.4,1.2,0.7C366.8,148.9,366.6,149.3,365.9,149.7z M361.5,133.9c6.5,3.9,10.7,5.3,12.8,4.2
				c0.8-0.4,1-1,0.6-1.7c-0.7-1.2-2.3-2.2-5-2.7C367.3,133.1,364.5,133.2,361.5,133.9z"/>
			<path class="st9" d="M369.3,165.9c0.9-0.3,1.6-1.9,1.9-4.6c0.4-3.5,0.9-5.9,1.4-7.2c0.5-1.4,1.3-2.2,2.4-2.7
				c2.9-1.1,5.7-0.5,8.7,1.7c2.9,2.2,4.7,4.1,5.4,6c0.4,1.2,0.5,2.1,0.3,2.7c-0.2,0.7-0.8,1.2-1.8,1.6c-0.4,0.2-0.9,0.1-1.4-0.1
				c-0.5-0.3-0.7-0.5-0.8-0.7c-0.1-0.2-0.1-0.5,0-1c0-0.5,0-0.9,0-1c-0.3-0.7-1.3-2-3.2-3.8c-1.9-1.8-3.5-2.5-4.8-2
				c-0.8,0.3-1.4,1-1.8,2s-0.6,2.7-0.8,5.1c-0.2,1.9-0.5,3.5-1,4.8c-0.5,1.3-1.4,2.2-2.6,2.6c-2.2,0.8-4.5-0.1-6.8-2.6
				c-2.4-2.6-4.1-5.2-5.1-8c-0.9-2.3-0.5-3.8,1.1-4.4c0.5-0.2,1-0.1,1.5,0.3c0.5,0.4,0.8,0.9,1,1.4c0.1,0.2,0.2,0.7,0.2,1.3
				c0.1,0.6,0.1,1.1,0.2,1.2c0.6,1.6,1.5,3.2,2.7,4.8C367.3,164.8,368.4,165.7,369.3,165.9z"/>
		</g>
		<g>
			<ellipse class="st8" cx="212.9" cy="235" rx="164.9" ry="157.6"/>
			<path class="st9" d="M112.7,327.4c1.5-1.3,2.1-2.6,1.7-3.7c-0.4-1.1-1.1-2.3-2.2-3.6c-2.2-2.6-4.7-4.5-7.5-5.7
				c-2.8-1.2-4.8-1.3-6.2-0.1c-1,0.8-1.4,2-1.3,3.6c0.1,1.6,1,4.3,2.9,8.1c1.8,3.7,2.8,6.6,3,8.7s-0.3,3.6-1.5,4.7
				c-1.3,1.1-3.4,1.4-6.4,0.9c-3-0.5-6-1.7-8.9-3.5c-2.9-1.8-5.2-3.6-6.7-5.4c-1.3-1.5-2.1-2.7-2.4-3.8s-0.2-1.8,0.3-2.2
				c0.3-0.3,0.9-0.6,1.6-0.8c0.7-0.2,1.1-0.2,1.3,0c0.2,0.2,0.4,0.5,0.5,0.8c0.7,1.7,1.5,3.2,2.6,4.4c2,2.3,4.7,4.1,8.2,5.6
				s5.8,1.7,6.9,0.7c0.5-0.4,0.6-1.2,0.3-2.3s-1.3-3.7-3.1-7.7c-2.2-5-3.2-8.4-2.8-10.2c0.3-1.9,1.1-3.4,2.4-4.4
				c2.4-2.1,5.6-2.3,9.6-0.7s7.3,4,10.1,7.1c1.8,2.1,2.9,4,3.2,5.7s0,2.9-0.8,3.6c-0.4,0.3-1.1,0.7-2,1.1S113.6,328.4,112.7,327.4z"
				/>
			<path class="st9" d="M108.4,350.4c-0.7,0.9-1.5,2-2.1,3.3c-0.1,0.3-0.2,0.4-0.4,0.6c-0.2,0.2-0.6,0.3-1.3,0.3s-1.3-0.2-1.7-0.6
				c-1.2-1-0.9-2.5,0.8-4.6c1.8-2.2,5.1-5.2,9.9-9.1c1.7-1.4,2.7-2.2,3-2.6c0.6-0.7,1.3-1.3,2-1.5c0.7-0.3,1.3-0.2,1.9,0.2
				c0.6,0.5,1,1.1,1.1,1.7c0.1,0.6,0,1.1-0.3,1.4s-0.8,0.7-1.4,1.2c-3.5,2.3-5.9,4.1-7.3,5.2C111.4,347.1,110,348.6,108.4,350.4z
				 M127.3,332.8c-0.3-0.2-0.2-0.6,0.1-1.3c0.1-0.2,0.2-0.4,0.3-0.7c0.3-1,0.7-1.8,1.2-2.4c0.4-0.5,1.1-0.7,2.1-0.7
				c1,0,1.8,0.3,2.6,0.9c0.4,0.3,0.6,0.8,0.9,1.4c0.2,0.6,0.2,1.1,0,1.3c-0.3,0.4-1,0.9-2.1,1.6s-2.1,0.9-3,0.7
				C128.2,333.3,127.6,333.1,127.3,332.8z"/>
			<path class="st9" d="M138.1,355.7c-0.7-0.4-1.8-0.4-3.1,0c-1.4,0.4-3.9,1.6-7.4,3.7c-4.8,2.8-7.6,4.3-8.7,4.5
				c-1,0.2-1.7,0.1-2.2-0.1c-1.6-1-2-2.2-1.1-3.7c0.4-0.6,1-1.5,1.9-2.5c3.1-3.5,6-7.5,8.6-11.9c0.3-0.5,0.8-0.9,1.7-1.3
				c0.8-0.3,1.4-0.4,1.8-0.2c0.7,0.4,1.1,0.9,1.2,1.5c0.1,0.6-0.3,1.5-1,2.8c-0.8,1.3-2.8,3.8-6.1,7.5c-1.1,1.2-1.7,2-2,2.4
				c-0.1,0.2-0.1,0.3,0,0.4c0.2,0.1,2.1-0.9,5.7-3c3.6-2.2,6.4-3.5,8.5-4.1c2.1-0.5,3.9-0.4,5.4,0.6c1.2,0.7,1.9,1.9,2.1,3.4
				c0.1,1.5-0.5,3.8-1.8,6.9c-1.5,3.5-2.4,5.7-2.5,6.7c-0.2,1,0.1,1.7,0.8,2.1c0.4,0.3,1,0.4,1.9,0.5c0.1,0,0.2,0,0.3,0.1
				c0.6,0.3,0.7,0.9,0.3,1.5c-0.3,0.6-1.1,1-2.3,1.1c-1.2,0.2-2.4-0.1-3.5-0.8c-1.2-0.7-1.8-1.7-1.9-2.9c-0.1-1.3,0.8-3.9,2.7-8
				C139.1,358.8,139.4,356.4,138.1,355.7z"/>
			<path class="st9" d="M152.9,383.3c-2.3-0.8-3.8-2-4.6-3.7c-0.8-1.7-0.8-3.6,0-5.9c1.3-3.8,4.3-7.2,8.9-10.3
				c4.6-3.1,8.2-4.1,10.9-3.2c1.2,0.4,2.1,1.4,2.5,3s0.4,3.1-0.1,4.5c-0.3,0.9-0.7,1.5-1.3,2c-0.6,0.5-1.1,0.6-1.5,0.5
				c-0.9-0.3-1.2-1.4-1-3.2c0.2-2,0-3.1-0.8-3.3c-1.6-0.6-4.1,0.6-7.4,3.4c-3.4,2.8-5.5,5.4-6.4,7.9s0.2,4.2,3.1,5.2
				c2.2,0.8,5.2,0.7,8.9-0.2c1.3-0.3,2.2-0.4,2.7-0.2c0.5,0.2,0.7,0.6,0.5,1.1c-0.4,1.1-2.2,2-5.5,2.7
				C158.5,384.3,155.5,384.2,152.9,383.3z"/>
			<path class="st9" d="M195.7,384.3c-0.3,1.5-2,3.1-5.2,4.8c-3.2,1.7-6.3,2.3-9.4,1.7c-2.5-0.4-4.4-1.5-5.5-3.2
				c-1.1-1.7-1.5-3.8-1-6.3c0.7-4.3,3-8.1,6.7-11.5c3.7-3.4,7.4-4.7,11-4.1c1.2,0.2,2.1,0.7,2.7,1.6c0.6,0.9,0.8,1.8,0.7,2.9
				c-0.4,2.3-2,4.3-4.7,6.1c-2.7,1.7-6.3,3.3-10.6,4.6c-0.9,0.3-1.4,0.7-1.5,1.4c-0.2,1.3,0,2.3,0.6,3.2c0.6,0.9,1.7,1.5,3.2,1.7
				c3.4,0.6,7.2-0.6,11.3-3.6c0.6-0.4,1-0.6,1.3-0.5C195.6,383.1,195.8,383.6,195.7,384.3z M179.9,378c7.3-2.7,11.2-5.1,11.6-7.4
				c0.2-0.9-0.2-1.4-1-1.6c-1.5-0.2-3.3,0.5-5.4,2.2C182.8,372.9,181.1,375.2,179.9,378z"/>
			<path class="st9" d="M234.5,385.5c0.8-0.2,2.1-0.4,3.7-0.7c2.1-0.3,5.5-0.7,10.4-1.2c1.3-0.1,2.2-0.3,2.5-0.3
				c0.4-0.1,0.8-0.3,1.4-0.6c0.6-0.3,1.1-0.5,1.4-0.6c0.3,0,0.6,0.1,1,0.4c0.4,0.3,0.6,0.6,0.7,0.9c0.2,1-0.3,1.8-1.2,2.6
				s-1.9,1.2-2.7,1.3l-0.9,0.1c-1.5,0.2-2.6,0.3-3.4,0.2c-2.3-0.2-5.1-0.1-8.3,0.5c-2.8,0.4-5.2,1.2-7.2,2.1c-2,1-3.3,1.9-3.8,2.7
				c-0.6,0.9-1,1.5-1.4,1.8s-0.8,0.4-1.4,0.5c-1.2,0.2-1.9-0.2-2.1-1.3c-0.3-1.6,0.2-3.1,1.4-4.5c1.2-1.4,3.2-3.2,6.2-5.2
				c1.7-1.2,2.8-2,3.1-2.4c0.4-0.4,1.3-1.6,2.9-3.5c1.6-1.9,2.8-3.5,3.6-4.8c0.8-1.3,1.3-2.5,1.6-3.4c0.3-1,0.3-1.9,0.2-2.6
				c-0.2-1.1-1-2-2.5-2.9c-1.5-0.9-2.8-1.2-3.9-1.1c-1,0.2-2.3,1-4.1,2.4c-1.8,1.5-3,2.8-3.8,4c-0.5,0.8-1.4,1.3-2.7,1.5
				c-0.3,0-0.7-0.2-1.1-0.8s-0.7-1.1-0.8-1.5c0-0.3,0-0.5,0-0.6s0.8-0.8,2.1-2.1c1.3-1.3,2.6-2.4,3.7-3.3c1.1-0.9,2.2-1.7,3.4-2.3
				c1.2-0.6,2.7-1,4.6-1.3c1.6-0.3,3.3,0.1,4.9,1.2c1.6,1.1,2.9,2.2,3.8,3.3c0.9,1.1,1.4,1.8,1.4,2c0.3,2.1-0.8,5.2-3.5,9.4
				C241,379.5,238,382.9,234.5,385.5z"/>
			<path class="st9" d="M270.8,383.5c-2.4,1-4.5,1-6.4,0c-1.9-1-3.4-2.6-4.3-4.9c-1.2-2.8-1.6-6.3-1.2-10.4c0.4-4.1,1.8-8,4.4-11.6
				c2.5-3.6,5.1-6,7.7-7.1c1.9-0.8,4.2-1.1,7-0.8c2.7,0.3,4.8,1,6.4,2.1c1.5,1.1,2.8,3,3.9,5.4c1.6,3.7,0.6,8.6-2.9,14.5
				C281.7,376.7,276.9,381,270.8,383.5z M275.9,352.2c-0.2,0.6-0.6,1-1.3,1.3c-0.1,0-0.4,0-1-0.1c-0.6-0.1-1.1-0.1-1.5,0.1
				c-1.8,0.8-3.1,1.6-4,2.6c-0.8,1-1.8,2.7-2.9,5.2c-1.1,2.5-1.9,5-2.2,7.5c-0.3,2.5,0,4.8,0.9,6.9c1,2.5,2.3,3.8,3.8,3.9
				c1.5,0.1,3-0.1,4.4-0.7c1.8-0.8,3.8-2.4,6-5c2.2-2.5,3.9-5.4,5.3-8.6c1.4-3.2,1.8-5.4,1.2-6.8c-0.3-0.8-0.9-1.7-1.6-2.6
				s-1.3-1.5-1.8-1.8c-0.5-0.3-1.3-0.6-2.6-1.2S276.5,352.2,275.9,352.2z"/>
			<path class="st9" d="M307.1,357.4c0.6-0.5,1.6-1.3,3-2.3c1.7-1.3,4.5-3.2,8.6-5.9c1.1-0.7,1.8-1.2,2.1-1.5s0.6-0.6,1-1.2
				c0.4-0.6,0.7-1,1-1.2c0.2-0.2,0.6-0.2,1.1-0.1c0.5,0.1,0.9,0.3,1,0.5c0.6,0.8,0.6,1.7,0.1,2.8c-0.5,1.1-1.1,1.9-1.8,2.4l-0.7,0.5
				c-1.2,0.9-2.2,1.5-2.9,1.8c-2.1,0.9-4.5,2.3-7.2,4.3c-2.3,1.7-4.1,3.5-5.4,5.3c-1.3,1.8-2,3.2-2.1,4.2c-0.1,1.1-0.2,1.8-0.4,2.2
				c-0.2,0.4-0.5,0.8-1,1.1c-1,0.7-1.8,0.7-2.4-0.1c-1-1.3-1.3-2.8-0.9-4.6s1.4-4.3,3-7.5c1-1.9,1.5-3.1,1.7-3.6s0.5-2,1-4.4
				c0.5-2.4,0.8-4.4,0.9-5.9c0.1-1.5,0-2.8-0.2-3.8c-0.2-1-0.6-1.8-1-2.4c-0.6-0.9-1.8-1.3-3.6-1.4c-1.7-0.1-3,0.2-4,0.9
				c-0.8,0.6-1.6,1.9-2.5,4.1c-0.9,2.1-1.4,3.9-1.5,5.3c-0.1,0.9-0.6,1.8-1.7,2.6c-0.2,0.2-0.7,0.1-1.4-0.2c-0.7-0.3-1.1-0.6-1.4-1
				c-0.2-0.2-0.3-0.4-0.3-0.5c0-0.1,0.3-1.1,0.9-2.8c0.6-1.7,1.2-3.3,1.7-4.6c0.5-1.3,1.2-2.5,1.9-3.6c0.7-1.1,1.9-2.2,3.4-3.3
				c1.3-1,2.9-1.4,4.9-1.2c1.9,0.2,3.6,0.6,4.9,1.1s2,1,2.1,1.1c1.3,1.7,1.7,5,1.3,9.9C310.1,349.1,309,353.5,307.1,357.4z"/>
			<path class="st9" d="M336.2,331c0.5-0.7,1.2-1.7,2.3-3c1.3-1.6,3.6-4.3,6.9-7.9c0.9-1,1.4-1.6,1.7-2c0.2-0.3,0.4-0.8,0.6-1.4
				c0.2-0.7,0.4-1.1,0.6-1.4c0.2-0.2,0.5-0.3,1-0.4s0.9,0,1.1,0.2c0.8,0.6,1,1.5,0.8,2.7c-0.2,1.2-0.6,2.1-1.2,2.8l-0.6,0.7
				c-1,1.2-1.7,2-2.3,2.5c-1.8,1.4-3.8,3.4-5.9,5.9c-1.8,2.2-3.1,4.4-3.9,6.4c-0.8,2.1-1.2,3.6-1,4.6c0.2,1.1,0.3,1.8,0.2,2.2
				s-0.3,0.9-0.7,1.3c-0.8,1-1.6,1.1-2.4,0.5c-1.3-1-1.9-2.4-2-4.3c-0.1-1.8,0.3-4.5,1.1-8c0.5-2,0.7-3.3,0.7-3.9s-0.1-2-0.2-4.5
				c-0.1-2.5-0.3-4.5-0.6-6c-0.3-1.5-0.7-2.7-1.1-3.6c-0.5-0.9-1-1.6-1.6-2.1c-0.8-0.7-2.1-0.8-3.8-0.5c-1.7,0.3-2.9,1-3.6,1.8
				c-0.6,0.8-1.1,2.3-1.4,4.5c-0.3,2.3-0.4,4.1-0.1,5.5c0.2,0.9-0.2,1.9-1,2.9c-0.2,0.2-0.7,0.3-1.4,0.2c-0.7-0.1-1.3-0.3-1.6-0.6
				c-0.2-0.2-0.4-0.3-0.4-0.5c0-0.1,0-1.1,0.2-3c0.1-1.8,0.3-3.5,0.5-4.9c0.2-1.4,0.5-2.7,1-4s1.3-2.6,2.5-4.1
				c1-1.3,2.5-2.1,4.4-2.4s3.6-0.3,5-0.1c1.4,0.2,2.2,0.4,2.4,0.5c1.6,1.3,2.9,4.4,3.7,9.3S337.1,326.7,336.2,331z"/>
		</g>
	</g>
</g>
<g id="文字">
	<g>
		<path class="st10" d="M517.7,99.6h88.5c52.4,0,78.7,20.6,78.7,61.9c0,20.5-9,37.5-26.9,51c26,11.3,39.1,31.5,39.1,60.5
			c0,22.2-7.7,40-23,53.2c-7.5,6.3-15.5,10.7-24.1,13.2c-8.6,2.5-20.1,3.7-34.6,3.7h-13.7v-62.6h12.3c7.3,0,12.4-0.9,15.3-2.8
			c3-1.8,4.5-5.1,4.5-9.7c0-7.8-6.1-11.8-18.2-11.8h-13.9v-64.9c13.3,0,20-4.6,20-13.7c0-8.4-6-12.7-18-12.7h-13.4v178.2h-72.4V99.6
			z"/>
		<path class="st10" d="M896,265H794.9c-1.5-5.1-2.3-9.8-2.3-14.1c0-5.9,1.1-11.8,3.2-17.5h33.9c-2.4-13.2-9.8-19.8-22.3-19.8
			c-8.3,0-15.1,3.5-20.3,10.6c-5.2,7.1-7.8,16.1-7.8,27.2c0,11.5,2.5,20.9,7.6,28c5.1,7.1,11.7,10.7,19.9,10.7
			c6.7,0,13.1-3.3,19.3-10l38,45.7c-17.7,13.9-37.4,20.9-59,20.9c-26.4,0-48.6-8.9-66.5-26.6c-18-17.7-26.9-39.7-26.9-65.8
			c0-26,9.1-48,27.2-66c18.1-18,40.4-26.9,66.8-26.9c25.8,0,47.5,8.8,65,26.3c17.5,17.5,26.3,39.1,26.3,64.8
			C896.7,255.1,896.5,259.3,896,265z"/>
		<path class="st10" d="M1021.2,163.5v71.3c-4.6-2.6-8.9-3.9-12.7-3.9c-12.1,0-18.2,9.3-18.2,27.8v84.4h-66.7v-97.2
			c0-25.7,7-46.2,21-61.4c14-15.3,32.8-22.9,56.2-22.9C1006.1,161.5,1012.9,162.2,1021.2,163.5z"/>
		<path class="st10" d="M1215.6,265h-101.1c-1.5-5.1-2.3-9.8-2.3-14.1c0-5.9,1.1-11.8,3.2-17.5h33.9c-2.4-13.2-9.8-19.8-22.3-19.8
			c-8.3,0-15.1,3.5-20.3,10.6c-5.2,7.1-7.8,16.1-7.8,27.2c0,11.5,2.5,20.9,7.6,28c5.1,7.1,11.7,10.7,19.9,10.7
			c6.7,0,13.1-3.3,19.3-10l38,45.7c-17.7,13.9-37.4,20.9-59,20.9c-26.4,0-48.6-8.9-66.5-26.6c-18-17.7-26.9-39.7-26.9-65.8
			c0-26,9.1-48,27.2-66c18.1-18,40.4-26.9,66.8-26.9c25.8,0,47.5,8.8,65,26.3c17.5,17.5,26.3,39.1,26.3,64.8
			C1216.3,255.1,1216.1,259.3,1215.6,265z"/>
		<path class="st10" d="M1302.7,99.6v68.1h30v70.5h-30c0,14.2,2.2,23.9,6.7,29.3s12.6,8,24.5,8v70.1c-3.5,0.1-6,0.2-7.7,0.2
			c-15.1,0-29.3-3.5-42.7-10.5c-13.4-7-24.1-16.5-32.2-28.5c-10.2-15.3-15.3-35.7-15.3-61V99.6H1302.7z"/>
	</g>
	<g>
		<path class="st11" d="M508.4,99.6h88.5c52.4,0,78.7,20.6,78.7,61.9c0,20.5-9,37.5-26.9,51c26,11.3,39.1,31.5,39.1,60.5
			c0,22.2-7.7,40-23,53.2c-7.5,6.3-15.5,10.7-24.1,13.2c-8.6,2.5-20.1,3.7-34.6,3.7h-13.7v-62.6h12.3c7.3,0,12.4-0.9,15.3-2.8
			c3-1.8,4.5-5.1,4.5-9.7c0-7.8-6.1-11.8-18.2-11.8h-13.9v-64.9c13.3,0,20-4.6,20-13.7c0-8.4-6-12.7-18-12.7h-13.4v178.2h-72.4V99.6
			z"/>
		<path class="st11" d="M886.7,265H785.6c-1.5-5.1-2.3-9.8-2.3-14.1c0-5.9,1.1-11.8,3.2-17.5h33.9c-2.4-13.2-9.8-19.8-22.3-19.8
			c-8.3,0-15.1,3.5-20.3,10.6c-5.2,7.1-7.8,16.1-7.8,27.2c0,11.5,2.5,20.9,7.6,28c5.1,7.1,11.7,10.7,19.9,10.7
			c6.7,0,13.1-3.3,19.3-10l38,45.7c-17.7,13.9-37.4,20.9-59,20.9c-26.4,0-48.6-8.9-66.5-26.6c-18-17.7-26.9-39.7-26.9-65.8
			c0-26,9.1-48,27.2-66c18.1-18,40.4-26.9,66.8-26.9c25.8,0,47.5,8.8,65,26.3c17.5,17.5,26.3,39.1,26.3,64.8
			C887.4,255.1,887.2,259.3,886.7,265z"/>
		<path class="st11" d="M1011.9,163.5v71.3c-4.6-2.6-8.9-3.9-12.7-3.9c-12.1,0-18.2,9.3-18.2,27.8v84.4h-66.7v-97.2
			c0-25.7,7-46.2,21-61.4c14-15.3,32.8-22.9,56.2-22.9C996.8,161.5,1003.6,162.2,1011.9,163.5z"/>
		<path class="st11" d="M1206.4,265h-101.1c-1.5-5.1-2.3-9.8-2.3-14.1c0-5.9,1.1-11.8,3.2-17.5h33.9c-2.4-13.2-9.8-19.8-22.3-19.8
			c-8.3,0-15.1,3.5-20.3,10.6c-5.2,7.1-7.8,16.1-7.8,27.2c0,11.5,2.5,20.9,7.6,28c5.1,7.1,11.7,10.7,19.9,10.7
			c6.7,0,13.1-3.3,19.3-10l38,45.7c-17.7,13.9-37.4,20.9-59,20.9c-26.4,0-48.6-8.9-66.5-26.6c-18-17.7-26.9-39.7-26.9-65.8
			c0-26,9.1-48,27.2-66c18.1-18,40.4-26.9,66.8-26.9c25.8,0,47.5,8.8,65,26.3c17.5,17.5,26.3,39.1,26.3,64.8
			C1207.1,255.1,1206.8,259.3,1206.4,265z"/>
		<path class="st11" d="M1293.4,99.6v68.1h30v70.5h-30c0,14.2,2.2,23.9,6.7,29.3s12.6,8,24.5,8v70.1c-3.5,0.1-6,0.2-7.7,0.2
			c-15.1,0-29.3-3.5-42.7-10.5c-13.4-7-24.1-16.5-32.2-28.5c-10.2-15.3-15.3-35.7-15.3-61V99.6H1293.4z"/>
	</g>
	<g>
	</g>
	<g>
	</g>
	<g>
	</g>
	<g>
	</g>
	<g>
	</g>
	<g>
	</g>
	<g>
	</g>
	<g>
	</g>
	<g>
	</g>
	<g>
	</g>
	<g>
	</g>
	<g>
	</g>
	<g>
	</g>
	<g>
	</g>
	<g>
	</g>
</g>
</svg>
